<svg xmlns="http://www.w3.org/2000/svg" width="349" height="60" fill="none"><mask id="a" width="60" height="60" x="0" y="0" maskUnits="userSpaceOnUse" style="mask-type:alpha"><path fill="#F1F1F1" d="M0 0h60v60H0z"/></mask><g fill="#0F870D" fill-opacity=".2" mask="url(#a)"><path d="M27.282 9.18c2.825-.468 5.424.2 7.905.924 2.726.797 4.643 2.91 6.467 4.605 2.076 1.93 3.5 4.371 4.78 6.766.875 1.637 1.724 3.332 2.286 5.204.373 1.24.62 2.399 1.083 3.537.393.97.645 2.083.549 3.23-.157 1.874-.188 3.898-.515 5.829-.259 1.53-.705 3.25-2.42 4.353-.353.227-.738.37-1.033.484-.322.126-.531.216-.677.333-.465.373-.963.563-1.403.708-.463.153-.818.245-1.161.423-.223.114-.584.248-.94.056-.286-.155-.4-.44-.454-.636l-.02-.078-.006-.028a.56.56 0 0 1 1.039-.375c.411-.193.848-.313 1.192-.426.405-.134.748-.274 1.051-.518.303-.243.678-.388.973-.503.324-.126.594-.229.833-.383 1.286-.827 1.67-2.112 1.921-3.597.317-1.873.337-3.751.503-5.736.078-.926-.124-1.86-.47-2.714-.488-1.2-.78-2.51-1.118-3.637-.529-1.759-1.332-3.372-2.201-4.998-1.276-2.386-2.627-4.681-4.555-6.473-1.936-1.8-3.615-3.648-6.019-4.35-2.478-.724-4.857-1.317-7.407-.895-3.112.516-5.877 1.796-8.565 3.432-.368.223-.707.509-1.058.831-.333.307-.712.684-1.085 1.006-.942.813-1.945 1.55-2.911 2.278-.974.732-1.916 1.457-2.777 2.268-1.693 1.595-3.183 3.332-4.218 5.413-.707 1.42-1.805 2.605-2.81 3.667-2.012 2.126-3.764 4.455-5.386 6.888-.904 1.354-1.771 2.557-2.651 3.894-.632.959-1.37 1.863-2.264 2.625-.053.045-.083.095-.12.208-.026.085-.03.113-.067.236a2 2 0 0 1-.132.337.56.56 0 1 1-.995-.516 1 1 0 0 0 .053-.141c.012-.04.05-.179.074-.257a1.5 1.5 0 0 1 .46-.72c.793-.676 1.465-1.493 2.055-2.389.848-1.288 1.814-2.64 2.654-3.9 1.645-2.465 3.436-4.849 5.504-7.035 1.017-1.075 2-2.146 2.622-3.395 1.115-2.243 2.706-4.085 4.453-5.73.91-.858 1.897-1.616 2.871-2.349.982-.738 1.946-1.448 2.853-2.23.36-.311.674-.628 1.058-.982.368-.339.771-.683 1.234-.965 2.756-1.677 5.66-3.031 8.965-3.58"/><path d="M28.376 13.056c1.295-.076 2.81-.3 4.287.099a.56.56 0 1 1-.292 1.081c-1.248-.337-2.492-.146-3.93-.061-2.012.118-3.86.935-5.754 1.833-.434.205-.83.512-1.257.877-.41.35-.869.776-1.359 1.126-.786.56-1.622 1.025-2.398 1.486-.083.05-.165.08-.224.1-.053.018-.12.036-.144.044l-.021.006c-1.53 1.528-3.05 2.888-4.213 4.619-.937 1.393-1.864 2.89-3.063 4.225-1.12 1.246-2.106 2.597-2.848 4.17-.412.874-.947 1.69-1.494 2.472-.556.795-1.109 1.535-1.608 2.314-1.159 1.807-2.292 3.742-3.72 5.447-1.087 1.297-2.237 2.62-3.607 3.732-.111.09-.237.176-.373.247-.031.017-.072.05-.125.14-.062.105-.105.217-.184.4-.128.3-.383.885-1.09.984-.59.083-1.032.325-1.469.728a.56.56 0 1 1-.76-.824c.572-.527 1.217-.894 2.073-1.014.033-.004.077.01.217-.316.056-.129.139-.343.248-.527.117-.199.291-.417.57-.563q.093-.05.187-.126l.12-.097c1.227-1.019 2.284-2.23 3.334-3.484 1.368-1.633 2.443-3.472 3.635-5.331.516-.804 1.105-1.596 1.634-2.352.538-.77 1.029-1.523 1.399-2.308.8-1.698 1.857-3.139 3.027-4.44 1.13-1.26 1.998-2.661 2.967-4.102 1.252-1.864 2.909-3.344 4.391-4.826.167-.167.379-.226.453-.248l.107-.032.017-.006c.81-.481 1.578-.907 2.311-1.43.437-.311.824-.674 1.281-1.065.44-.377.931-.766 1.506-1.039 1.883-.892 3.912-1.806 6.169-1.939M45.959 18.492a.56.56 0 0 1 .707.308l.01.027.03.084c.026.084.048.166.067.238.027.105.045.183.069.263.022.077.041.13.06.168.017.037.027.046.024.043.621.591 1.005 1.299 1.325 1.962.332.689.581 1.296.956 1.85l.09.138c.439.692.715 1.44.943 2.164.252.799.433 1.52.71 2.238.823 2.132 1.57 4.296 2.255 6.474.128.408.272.811.42 1.233.145.417.292.847.417 1.287.243.852.412 1.762.332 2.74l-.008.094-.003.026c.272.92.186 1.773-.02 2.555-.2.76-.55 1.559-.777 2.21-.415 1.192-1.355 1.983-2.262 2.595l-.181.12c-.563.37-.971.645-1.236 1.11-.248.436-.68.76-1.044.961-2.076 1.143-4.295 1.825-6.627 2.152-.173.024-.354.018-.476.015a2 2 0 0 0-.313.006c-.071.01-.094.025-.1.029 0 0-.03.02-.063.115a.56.56 0 0 1-1.06-.365c.093-.27.242-.49.454-.648.207-.155.43-.216.62-.241.181-.025.363-.02.49-.017.147.004.228.005.292-.004 2.215-.31 4.3-.954 6.242-2.023.276-.153.508-.352.611-.534.419-.736 1.066-1.146 1.596-1.493.932-.61 1.687-1.251 2-2.147.273-.784.563-1.412.75-2.126.172-.652.224-1.28.035-1.934l-.02-.063a.8.8 0 0 1-.034-.278c.002-.055.01-.12.01-.13l.013-.153c.05-.765-.082-1.506-.298-2.265-.116-.406-.254-.81-.399-1.225-.143-.41-.295-.837-.43-1.265-.679-2.159-1.418-4.3-2.231-6.408-.293-.758-.508-1.589-.734-2.304-.233-.742-.493-1.418-.893-2.012-.435-.644-.742-1.378-1.037-1.99-.307-.638-.62-1.192-1.088-1.638-.233-.223-.332-.518-.388-.712-.03-.101-.056-.212-.077-.294a3 3 0 0 0-.049-.172l-.015-.046-.01-.028a.56.56 0 0 1 .345-.69"/><path d="M26.98 7.073c1.047-.28 2.296-.47 3.407-.218 2.29.522 4.732.97 6.998 2.186 2.353 1.264 4.473 2.772 6.276 4.751.685.751 1.287 1.658 1.858 2.391.576.74 1.173 1.384 1.949 1.84l.076.044.04.025c.203.128.347.322.4.386.918 1.125 1.749 2.328 2.402 3.655.233.472.56.884.942 1.31.364.405.816.862 1.19 1.337 1.514 1.926 2.64 4.108 3.392 6.48.624 1.966 1.304 3.846 2.534 5.446.856 1.113 1.66 2.365 2.45 3.459.228.314.451.66.654.957.21.309.416.59.64.836.435.478.936.815 1.673.901.338.04.603.238.765.369.085.07.175.15.242.207.074.064.133.113.186.15a.56.56 0 1 1-.643.918 4 4 0 0 1-.276-.22c-.086-.074-.148-.13-.216-.185a.8.8 0 0 0-.182-.123l-.007-.003c-1.07-.126-1.803-.636-2.37-1.26a9 9 0 0 1-.737-.958c-.228-.333-.42-.633-.636-.932-.859-1.187-1.572-2.317-2.43-3.433-1.36-1.769-2.089-3.816-2.715-5.79-.715-2.253-1.78-4.313-3.205-6.126-.345-.44-.724-.815-1.143-1.282-.403-.45-.812-.952-1.113-1.563-.606-1.23-1.384-2.362-2.266-3.441-.049-.06-.075-.093-.103-.123l-.024-.024.005.003-.093-.054c-.958-.563-1.658-1.337-2.266-2.118-.65-.836-1.15-1.61-1.8-2.324-1.698-1.863-3.707-3.299-5.979-4.519-2.1-1.127-4.356-1.543-6.717-2.08-.904-.206-2.023-.035-3.058.26-.622.177-1.281.31-1.868.452-.605.145-1.177.309-1.724.558-.968.442-1.96.84-2.922 1.24-.968.405-1.916.816-2.828 1.295-.728.382-1.5.665-2.217.94-.731.28-1.415.555-2.041.93-1.067.64-2.181 1.211-3.246 1.787-1.074.582-2.114 1.176-3.086 1.886-2.782 2.031-4.829 4.706-7.182 7.322-1.84 2.046-3.6 4.375-5.718 6.313-.296.27-.566.583-.841.925-.264.329-.557.717-.848 1.063a.56.56 0 0 1-.858-.721c.285-.34.534-.672.833-1.044.287-.357.599-.722.957-1.05 2.068-1.892 3.71-4.087 5.642-6.235 2.275-2.53 4.447-5.355 7.354-7.478 1.035-.756 2.13-1.38 3.214-1.966 1.094-.592 2.164-1.14 3.202-1.763.72-.431 1.487-.736 2.217-1.016.743-.285 1.442-.541 2.096-.885.96-.504 1.944-.93 2.919-1.336.981-.41 1.942-.795 2.887-1.226.645-.294 1.3-.477 1.928-.629.646-.155 1.227-.27 1.823-.44z"/><path d="M27.424 2.816c2.046-.2 4.108.22 6.017.502 1.806.266 3.523.985 5.112 1.472.637.195 1.18.548 1.66.897.506.366.912.702 1.376.982.64.386 1.247.832 1.823 1.237.587.412 1.155.792 1.767 1.09.63.308 1.134.744 1.576 1.179.472.463.813.858 1.25 1.252 1.691 1.526 3.038 3.37 4.393 5.08l.222.277c.522.645 1.065 1.278 1.613 1.92.624.73 1.255 1.472 1.85 2.239 2.52 3.247 5.132 6.417 7.76 9.588.322.387.703.716 1.127 1.085.368.32.768.669 1.121 1.085a.56.56 0 0 1 .57.956 1 1 0 0 1-.712.192 1 1 0 0 1-.3-.074.8.8 0 0 1-.313-.229c-.307-.389-.68-.72-1.1-1.084-.409-.355-.865-.745-1.255-1.216-2.629-3.17-5.251-6.353-7.784-9.616a61 61 0 0 0-1.816-2.198c-.622-.73-1.257-1.468-1.86-2.23-1.396-1.759-2.665-3.497-4.266-4.942-.446-.402-.904-.911-1.285-1.286-.411-.404-.814-.742-1.283-.97-.696-.34-1.325-.764-1.92-1.181-.603-.424-1.16-.835-1.756-1.194-.518-.312-1.023-.721-1.455-1.035-.457-.332-.878-.594-1.331-.733-1.74-.533-3.251-1.185-4.947-1.435-2.002-.294-3.875-.678-5.745-.495-2.12.207-4.228.44-6.308.848-.74.144-1.45.38-2.183.64-.722.258-1.479.544-2.257.76q-.1.03-.147.05l.002.043.002.029a.56.56 0 0 1-1.118.064c-.022-.266.001-.585.229-.854.204-.242.497-.345.732-.41.729-.204 1.43-.47 2.182-.737.74-.263 1.517-.523 2.343-.685 2.136-.418 4.289-.656 6.414-.863"/><path d="M28.4 14.844c2.135-.405 4.249.146 6.125.498 1.988.373 3.64 1.546 4.946 3.027.912 1.034 1.417 2.277 1.882 3.424.6 1.483 1.255 3.023 1.61 4.67.577 2.682.914 5.395 1.212 8.089a5.06 5.06 0 0 1-.355 2.404c-.302.733-.82 1.446-1.587 1.727-.996.365-2.068.845-3.234 1.102-2.06.456-3.917.227-5.75-.836-.436-.253-.735-.612-.963-.886-.25-.297-.415-.492-.626-.618-1.685-1.003-2.098-2.695-2.27-4.173-.15-1.29-.52-2.971.296-4.523a.56.56 0 0 1 .992.521c-.613 1.167-.347 2.402-.175 3.872.164 1.407.522 2.621 1.73 3.34.406.242.694.6.913.863.239.286.423.494.665.635 1.57.91 3.136 1.112 4.946.711 1.068-.236 1.997-.66 3.09-1.06.345-.127.69-.506.937-1.103.24-.582.342-1.272.277-1.853-.297-2.689-.63-5.353-1.194-7.975-.33-1.532-.939-2.97-1.553-4.486-.474-1.172-.918-2.235-1.684-3.103-1.197-1.358-2.642-2.354-4.312-2.668-1.996-.374-3.838-.853-5.71-.498-.871.165-1.743.46-2.602.804-1.85.738-3.527 1.673-4.839 3.115q-1.084 1.193-2.136 2.417c-.223.26-.485.503-.697.71-.226.219-.403.402-.528.582-.425.615-.93 1.142-1.399 1.633-.48.501-.922.965-1.29 1.493-1.044 1.5-1.76 3.126-2.22 4.883-.186.704-.49 1.355-.76 1.948-.276.61-.519 1.168-.646 1.76a9.2 9.2 0 0 1-1.19 2.984c-.145.232-.208.51-.226.85-.01.169-.007.343-.001.528.005.178.014.379.014.565-.004 1.448.02 2.92.05 4.377.022 1.114.422 2.063.955 2.974 1.565 2.677 3.966 4.607 6.531 6.486.326.239.643.514.923.823 1.197 1.323 2.731 2.2 4.307 3.232 1.42.931 2.89 1.804 4.413 2.207.6.16 1.232.397 1.78.57.573.182 1.13.322 1.717.35.438.021.86-.03 1.325-.093.45-.06.95-.133 1.468-.12a8 8 0 0 0 .571-.014c.202-.009.428-.02.656-.015.462.01.98.085 1.487.39.152.093.32.222.429.423.112.207.122.414.11.578a.56.56 0 0 1-1.118-.041h-.001c-.273-.165-.571-.222-.931-.23a9 9 0 0 0-.58.015c-.202.01-.426.02-.651.014-.41-.01-.817.047-1.29.11-.46.063-.976.129-1.528.103-.73-.035-1.394-.208-2.004-.402-.637-.202-1.153-.402-1.727-.554-1.713-.454-3.314-1.418-4.74-2.353-1.494-.98-3.203-1.958-4.524-3.418a5 5 0 0 0-.652-.594l-.102-.077c-2.57-1.882-5.144-3.928-6.837-6.824-.578-.99-1.08-2.133-1.108-3.517-.03-1.46-.054-2.942-.05-4.403 0-.162-.007-.328-.013-.528a8 8 0 0 1 .002-.622c.023-.435.11-.928.397-1.387a8 8 0 0 0 1.043-2.622c.155-.724.447-1.384.72-1.987.282-.62.54-1.177.696-1.77.492-1.872 1.259-3.62 2.386-5.24.425-.61.93-1.136 1.4-1.626.478-.5.92-.966 1.286-1.496.194-.28.445-.532.67-.75.237-.23.447-.425.627-.636q1.061-1.235 2.157-2.44c1.473-1.618 3.324-2.633 5.252-3.402.89-.355 1.837-.68 2.81-.864M40.571 5.13a.56.56 0 0 1 .67-.383l.029.008.138.043c1.42.452 2.626 1.2 3.727 2.036 1.111.844 2.2 1.85 3.235 2.697 1.12.917 2.064 1.979 2.95 3.05.896 1.086 1.712 2.154 2.626 3.163 1.397 1.541 2.697 3.15 3.967 4.78a22.5 22.5 0 0 0 3.01 3.175c.442.382.704.825.91 1.225.219.426.35.743.565 1.053.76 1.093 1.735 2.002 2.741 2.994.153.15.286.31.404.458.125.155.224.283.335.413.202.235.384.399.603.495l.044.019.027.011a.56.56 0 0 1-.41 1.042l-.027-.01-.09-.038c-.441-.196-.752-.504-.997-.79-.127-.147-.253-.31-.358-.44a4 4 0 0 0-.318-.362c-.969-.956-2.04-1.953-2.874-3.152-.272-.392-.471-.85-.641-1.18-.183-.356-.367-.649-.646-.89a23.6 23.6 0 0 1-3.162-3.334c-1.263-1.62-2.544-3.205-3.913-4.717-.937-1.033-1.8-2.16-2.66-3.201-.872-1.055-1.761-2.05-2.796-2.897-1.125-.92-2.096-1.83-3.202-2.671-1.047-.795-2.137-1.462-3.39-1.862l-.122-.037-.028-.01a.56.56 0 0 1-.347-.689M2.412 55.334a.56.56 0 0 1 .77-.047l.022.02.022.02c.112.093.246.127.504.127.07 0 .141-.003.224-.006.08-.002.17-.005.262-.005.184 0 .401.01.627.07l.16.045c.802.23 1.534.576 2.223.923.75.377 1.43.745 2.157 1.03 1.176.461 2.334 1.004 3.383 1.78.16.118.348.16.685.212.306.048.759.108 1.182.385.854.558 1.793.968 2.785 1.361.915.363 1.895.718 2.83 1.156l.187.09.037.017.024.012c.852-.067 1.638.117 2.349.319.76.215 1.402.439 2.084.522 2.102.256 4.075.905 6 1.557.495.167 1.063.061 1.774-.099v-.059a.56.56 0 0 1 1.121.02v.176a1.2 1.2 0 0 1-.042.307.84.84 0 0 1-.239.394.9.9 0 0 1-.378.206l-.057.014c-.694.158-1.648.403-2.538.102-1.933-.654-3.804-1.265-5.777-1.506-.796-.097-1.576-.364-2.254-.557-.663-.187-1.27-.32-1.891-.284l-.125.01a.9.9 0 0 1-.393-.06c-.077-.03-.16-.072-.183-.083-.942-.456-1.92-.807-2.942-1.212-1.006-.399-2.033-.842-2.986-1.465-.19-.124-.398-.162-.742-.216-.314-.05-.767-.116-1.177-.419-.936-.691-1.99-1.192-3.126-1.637-.79-.31-1.543-.716-2.252-1.072-.723-.364-1.42-.688-2.167-.886a1.3 1.3 0 0 0-.337-.033q-.104.001-.227.005c-.08.003-.17.006-.262.006-.359 0-.83-.045-1.249-.412l-.04-.036-.021-.02a.56.56 0 0 1-.007-.772"/><path d="M29.903 4.764c.548 0 1.104.143 1.536.227.465.091.853.135 1.236.048l.045-.01a.8.8 0 0 1 .522.104c.116.067.208.153.26.203l.018.018c.343.036.563.254.635.315q.045.037.06.048c1.109-.177 2.013.401 2.768.895.25.164.569.276.989.422.368.129.81.282 1.216.527l.08.05.615.391a52 52 0 0 0 1.86 1.128c.732.42 1.497 1.027 1.74 2.2.045.213.188.436.448.692.268.264.569.482.906.761 1.112.92 1.988 2.091 2.849 3.067 1.087 1.232 2.465 2.495 3.347 4.112 1.565 2.869 3.627 5.428 5.707 7.983 1.65 2.026 3.171 4.27 4.727 6.283.575.743 1.221 1.413 1.894 2.096.665.676 1.36 1.37 1.99 2.134a.56.56 0 0 1-.845.735l-.019-.022-.111-.133c-.563-.666-1.178-1.282-1.814-1.928-.671-.682-1.362-1.395-1.981-2.197-1.639-2.12-3.047-4.219-4.71-6.26-2.072-2.546-4.2-5.181-5.821-8.154-.802-1.47-2.007-2.55-3.204-3.907-.945-1.071-1.701-2.1-2.723-2.945-.27-.223-.664-.518-.979-.827-.322-.318-.648-.731-.758-1.263-.149-.715-.588-1.103-1.2-1.455a60 60 0 0 1-2.522-1.548c-.3-.192-.65-.318-1.06-.461-.384-.134-.846-.289-1.235-.543-.805-.527-1.357-.827-1.981-.726-.226.037-.43.006-.608-.072-.163-.07-.284-.173-.348-.227l-.062-.05a.65.65 0 0 1-.317-.068 1 1 0 0 1-.17-.113 3 3 0 0 1-.136-.129c-.557.091-1.076.014-1.523-.074-.527-.103-.916-.206-1.323-.207-2.237-.002-4.39.31-6.387 1.298-1.163.575-2.373 1.106-3.62 1.518-.993.328-1.933.781-2.89 1.27-.948.484-1.925 1.01-2.94 1.445-1 .429-1.959.911-2.974 1.387a.56.56 0 0 1-.475-1.015c.977-.458 1.986-.964 3.007-1.402.97-.416 1.895-.914 2.872-1.413.966-.493 1.97-.98 3.048-1.336 1.182-.39 2.342-.898 3.476-1.459 2.205-1.09 4.546-1.416 6.884-1.413M37.266-4.325c.74.029 1.425.31 1.961.483 2.772.89 5.31 2.342 7.809 3.574C48.67.54 50.217 1.54 51.68 2.6l.291.213.24.179c.56.42 1.103.859 1.637 1.288.615.492 1.22.974 1.852 1.423 2.413 1.715 4.723 3.616 7.043 5.396.38.29.828.647 1.105 1.23a2 2 0 0 0 .13.228l.033-.015a.56.56 0 0 1 .509 1c-.192.097-.4.157-.617.148a1 1 0 0 1-.564-.2c-.236-.175-.381-.433-.468-.61l-.034-.069c-.151-.317-.398-.533-.776-.823-2.363-1.813-4.617-3.67-7.01-5.372-.661-.47-1.29-.97-1.904-1.462-.617-.496-1.218-.981-1.84-1.438-1.519-1.117-3.105-2.158-4.767-2.979-2.581-1.273-4.989-2.656-7.655-3.512-.637-.205-1.097-.397-1.606-.428l-.102-.003-.03-.002a.56.56 0 0 1 .047-1.119z"/><path d="M15.873 7.386a.56.56 0 0 1 .417 1.04c-1.594.639-3.104 1.353-4.458 2.35-.685.504-1.247.974-1.602 1.61-.325.584-.824.888-1.215 1.14-1.356.87-2.614 1.878-3.907 2.911-2.054 1.642-3.68 3.609-5.606 5.521-.72.716-1.374 1.497-2.056 2.302-.676.798-1.376 1.617-2.163 2.366-1.198 1.14-2.274 2.373-3.447 3.61a.56.56 0 0 1-.813-.771c1.13-1.192 2.263-2.485 3.487-3.65.738-.702 1.402-1.478 2.08-2.279.673-.794 1.361-1.617 2.123-2.373 1.821-1.809 3.583-3.913 5.696-5.601 1.283-1.026 2.587-2.072 4-2.98.425-.273.674-.44.843-.742.482-.864 1.222-1.456 1.915-1.966 1.466-1.08 3.077-1.835 4.706-2.488M34.333-10.75a.56.56 0 0 1 .731-.305c.696.286 1.382.514 2.125.797.722.275 1.457.586 2.138 1.008 1.446.896 2.952 1.685 4.48 2.483 1.524.796 3.07 1.601 4.564 2.519 1.497.919 2.944 1.92 4.38 2.888 1.442.972 2.88 1.915 4.388 2.74.939.513 1.781 1.292 2.516 1.94.908.803 1.86 1.528 2.857 2.211l.2.136.023.017a.56.56 0 0 1-.65.912 31 31 0 0 1-2.982-2.269l-.19-.166c-.774-.684-1.509-1.36-2.312-1.799-1.556-.85-3.03-1.818-4.476-2.792-1.452-.979-2.87-1.96-4.34-2.863-1.456-.894-2.967-1.682-4.496-2.48-1.524-.796-3.066-1.604-4.553-2.525-.589-.365-1.244-.646-1.945-.913-.678-.258-1.448-.518-2.153-.807a.56.56 0 0 1-.305-.732M43.332 10.517a.56.56 0 0 1 .742-.213l.025.013.225.136c2.303 1.416 3.983 3.47 5.617 5.4.843.996 1.7 2.027 2.47 3.074.724.985 1.464 2.053 2.085 3.176.21.38.51.736.85 1.107.596.65 1.374 1.38 1.795 2.407.13.318.361.586.676.884.288.272.709.62 1.028.994 1.168 1.37 2.195 2.816 3.178 4.285.638.952 1.216 1.789 2.083 2.392l.105.075c.512.375 1.089.95 1.168 1.833l.007.093v.028a.56.56 0 0 1-1.117.055l-.005-.071c-.039-.437-.336-.772-.798-1.094-1.065-.74-1.749-1.754-2.374-2.688-.973-1.454-1.972-2.86-3.1-4.18-.268-.316-.57-.553-.944-.907-.348-.33-.721-.73-.944-1.274-.325-.791-.908-1.337-1.584-2.075-.347-.38-.727-.819-1.005-1.322-.586-1.06-1.294-2.083-2.007-3.054a52 52 0 0 0-2.107-2.64l-.315-.374c-1.666-1.967-3.23-3.867-5.347-5.169l-.207-.124-.024-.015a.56.56 0 0 1-.176-.752M19.162-4.4c.444-.128.968-.202 1.542-.005l.055.02.027.01a.56.56 0 0 1-.418 1.04c-.283-.105-.56-.085-.896.012-.175.05-.349.115-.55.19-.192.071-.41.152-.636.212-.66.176-1.307.42-1.968.689-.649.264-1.334.562-2.015.819-.693.26-1.416.47-2.09.682-.685.216-1.338.44-1.952.74a77 77 0 0 0-3.724 1.92c-1.129.63-2.339 1.12-3.533 1.542C1.729 3.922.57 4.591-.58 5.34c-1.074.699-2.195 1.505-3.33 2.205l-.02.072a.56.56 0 0 1-1.072-.327l.007-.02.004-.02.02-.098a1 1 0 0 1 .064-.183.66.66 0 0 1 .252-.281l.221-.136c1.098-.68 2.115-1.417 3.243-2.151 1.178-.767 2.423-1.49 3.821-1.985C3.796 2.003 4.94 1.537 5.99.95A78 78 0 0 1 9.769-.997c.693-.339 1.412-.583 2.108-.802.708-.223 1.377-.416 2.033-.663.663-.25 1.301-.529 1.987-.808.674-.274 1.373-.54 2.103-.734.165-.044.335-.106.533-.18.189-.07.406-.152.63-.216"/><path d="M37.945-5.844a.56.56 0 0 1 .636-.437l.028.005.132.03c.657.15 1.274.378 1.862.618.645.263 1.215.522 1.83.754 3.069 1.151 5.83 2.831 8.495 4.578 2.683 1.758 5.229 3.703 7.721 5.698 1.251 1.002 2.56 1.903 3.884 2.854l.569.411.023.018a.56.56 0 0 1-.684.887c-1.47-1.072-3.038-2.13-4.492-3.295-2.481-1.986-4.996-3.906-7.635-5.636-2.653-1.738-5.328-3.36-8.274-4.466-.629-.236-1.274-.526-1.86-.765-.568-.232-1.12-.434-1.69-.564l-.114-.026-.028-.006a.56.56 0 0 1-.403-.658M36.55 14.58a.56.56 0 0 1 .686-.399c1.685.447 2.734 1.66 3.664 2.79.403.489.832.964 1.27 1.45.434.484.877.979 1.293 1.492 1.247 1.54 2.095 3.331 2.83 5.132.343.842.55 1.724.761 2.532.215.825.437 1.59.805 2.295.038.073.157.291.155.544-.009.899.108 1.774.19 2.74.08.944.123 1.941-.074 2.968-.265 1.381-.467 2.897-1.081 4.318-.126.292-.288.601-.538.853-.264.265-.598.44-1.02.507-.263.041-.465.217-.853.532-.498.403-1.066.535-1.528.629-.497.1-.858.158-1.186.336-1.488.81-3.086.425-4.375.19a3.2 3.2 0 0 0-.669-.033c-.228.007-.544.028-.815.028a.56.56 0 1 1 0-1.121c.259 0 .479-.018.782-.027.279-.008.589-.006.903.051 1.42.26 2.57.51 3.638-.072.513-.28 1.084-.366 1.5-.45.45-.092.776-.185 1.044-.401.286-.233.755-.67 1.385-.769.195-.03.31-.1.399-.19.102-.103.197-.26.304-.507.551-1.275.727-2.615 1.01-4.085.166-.871.136-1.744.058-2.662-.075-.884-.2-1.848-.195-2.804l-.005-.012-.022-.044c-.432-.828-.68-1.702-.896-2.531-.221-.847-.407-1.636-.715-2.392-.723-1.773-1.522-3.442-2.663-4.85-.394-.487-.819-.961-1.256-1.447-.433-.482-.88-.976-1.301-1.488-.912-1.108-1.736-2.016-2.966-2.385l-.12-.034-.028-.008a.56.56 0 0 1-.37-.677M-.692 57.077c.166.003.283.008.427.007 1.329-.01 2.684.136 3.925.874.115.069.243.084.51.08.228-.004.638-.031 1.033.146l.066.028c.157.062.331.106.563.17.24.068.543.157.821.327.905.553 1.85.835 2.971 1.026.983.167 2.233.599 3.06 1.602.122.148.311.22.657.256 1.042.112 1.99.536 2.79.947 2.016 1.036 4.165 1.732 6.36 2.277.952.237 2.047.433 3.049.938l.032-.006.075-.015c.057-.01.144-.024.243-.024.531.003 1.442-.12 2.216.473.085.065.22.089.366-.008l.024-.016a.56.56 0 0 1 .595.95l-.051.032a1.42 1.42 0 0 1-1.616-.069c-.394-.302-.78-.237-1.54-.241l-.034.005c-.014.003-.1.02-.154.029-.152.023-.38.034-.628-.093-.862-.443-1.78-.602-2.848-.868-2.24-.557-4.48-1.278-6.6-2.367-.773-.398-1.57-.74-2.398-.83-.406-.043-.985-.151-1.402-.657-.581-.704-1.52-1.064-2.384-1.21-1.201-.205-2.298-.521-3.368-1.175-.13-.08-.298-.136-.537-.203-.215-.06-.514-.133-.786-.255-.12-.054-.248-.053-.559-.049-.273.004-.688.007-1.1-.237-.98-.583-2.09-.727-3.341-.716-.156 0-.334-.006-.453-.007a2 2 0 0 0-.33.013.54.54 0 0 0-.382.202.56.56 0 0 1-.854-.725 1.66 1.66 0 0 1 1.083-.587 3.3 3.3 0 0 1 .499-.024M21.186 1.556c1.9-.425 3.863-.872 5.94-.787.339.014.725.08.99.112.303.036.525.04.705-.005a3.7 3.7 0 0 1 1.125-.085c.364.021.595.055.888.055.268 0 .512.053.72.112q.158.045.297.091c.094.031.177.058.26.083.327.097.523.109.722.013a.56.56 0 0 1 .487 1.009c-.584.282-1.123.172-1.527.052-.1-.03-.2-.062-.289-.09a7 7 0 0 0-.255-.08 1.5 1.5 0 0 0-.412-.07c-.329.001-.703-.042-.955-.056a2.6 2.6 0 0 0-.788.053c-.389.098-.782.07-1.109.031-.363-.043-.62-.093-.906-.105-1.905-.078-3.724.33-5.649.76-.96.215-1.896.532-2.853.868-.948.333-1.925.687-2.926.954a16.4 16.4 0 0 0-4.22 1.786C9.763 7.25 8.172 8.341 6.747 9.63c-.625.566-1.308 1.06-1.954 1.533-.656.479-1.276.936-1.826 1.449-1.238 1.155-2.657 2.034-4.011 2.884-1.37.86-2.678 1.693-3.794 2.782-.457.446-1.074.763-1.493 1.025-.457.287-.791.563-.986.98a.56.56 0 0 1-1.015-.475c.334-.716.898-1.135 1.406-1.454.546-.342.962-.543 1.305-.878 1.214-1.185 2.622-2.076 3.98-2.93 1.375-.862 2.698-1.684 3.844-2.753.606-.566 1.28-1.06 1.928-1.535.658-.48 1.29-.94 1.864-1.459 1.498-1.355 3.156-2.489 4.86-3.504a17.5 17.5 0 0 1 4.507-1.907c.949-.253 1.876-.589 2.843-.928.957-.336 1.948-.673 2.98-.904M-7.363 40.298a.56.56 0 0 1-1.108-.165zm23.56-27.287a.56.56 0 0 1 .517.995c-.394.205-.851.403-1.212.577-.386.186-.727.373-1.015.601-.678.54-1.419 1.005-2.096 1.456-.69.46-1.332.917-1.89 1.47-.407.404-.752.866-1.144 1.37-.382.49-.804 1.011-1.33 1.45-.617.517-1.112 1.141-1.596 1.825-.468.663-.956 1.431-1.495 2.114-1.69 2.14-3.424 4.25-5.134 6.36-2.145 2.648-4.123 5.422-6.132 8.203-.137.19-.305.319-.447.412-.111.072-.307.182-.367.218-.187.114-.208.162-.219.236l-1.108-.165c.086-.577.47-.86.744-1.028.17-.104.22-.123.337-.199a.6.6 0 0 0 .152-.13c2.001-2.77 4-5.575 6.169-8.252 1.717-2.119 3.441-4.216 5.125-6.35.518-.655.943-1.335 1.46-2.066.502-.71 1.064-1.427 1.793-2.037.425-.355.783-.792 1.164-1.28.369-.474.768-1.009 1.24-1.477.638-.633 1.357-1.14 2.056-1.606.713-.475 1.39-.9 2.022-1.401.386-.307.815-.536 1.224-.734.434-.209.797-.362 1.182-.562"/><path d="M24.018 18.589c2.567-1.382 5.27-2.507 8.434-1.8.208.046.395.06.678.103.252.038.558.096.846.243 1.705.868 3.293 1.96 4.577 3.477.507.6.93 1.227 1.244 2.012.45 1.13.73 2.34 1.059 3.403q.841 2.732.478 5.478c-.138 1.041-.62 2.077-.983 2.96-.162.393-.354 1.194-1.167 1.548l-.027.011a.56.56 0 0 1-.42-1.038l.05-.024c.242-.127.284-.33.528-.923.397-.966.795-1.824.908-2.682q.333-2.495-.438-5c-.362-1.175-.598-2.24-1.029-3.317-.257-.644-.606-1.169-1.059-1.704-1.122-1.327-2.52-2.314-4.078-3.124l-.151-.078c-.12-.061-.278-.1-.504-.134-.194-.029-.499-.06-.756-.117-2.745-.614-5.134.333-7.659 1.693-2.28 1.227-3.478 3.287-5.08 5.436-.442.595-.748 1.255-1.066 1.969-.311.697-.64 1.46-1.118 2.156-.266.386-.461.817-.669 1.297-.2.466-.416.99-.71 1.478-.214.355-.552 1.219-1.534 1.403l-.04.045a1 1 0 0 0-.14.239c-.729 1.955-1.548 3.709-1.89 5.679-.236 1.362-.104 2.633-.071 4.102.018.802.25 1.493.572 2.182.162.349.34.686.527 1.046.184.353.372.724.535 1.112.139.33.416.642.807.992.35.314.866.717 1.247 1.101 1.902 1.919 3.898 3.707 6.089 5.262a36 36 0 0 0 3.247 2.063c1.292.723 2.423 1.451 3.812 1.73 1.12.225 2.27.68 3.284 1.325a.56.56 0 0 1-.602.945 8.7 8.7 0 0 0-2.903-1.171c-1.607-.323-2.932-1.176-4.139-1.852a37 37 0 0 1-3.348-2.127c-2.258-1.602-4.304-3.437-6.236-5.386-.362-.366-.744-.648-1.199-1.056-.415-.372-.852-.82-1.092-1.392-.144-.343-.314-.679-.496-1.03-.18-.346-.374-.713-.55-1.09-.354-.761-.653-1.611-.676-2.629-.03-1.358-.173-2.815.088-4.319.365-2.106 1.256-4.032 1.944-5.878.069-.185.184-.388.321-.556.07-.086.155-.175.256-.25a.9.9 0 0 1 .417-.183l.068-.012c.323-.074.397-.3.742-.873.245-.408.428-.85.642-1.344.206-.48.44-1.002.774-1.488.408-.594.694-1.253 1.017-1.978.316-.709.666-1.475 1.192-2.181 1.5-2.014 2.886-4.375 5.447-5.754"/><path d="M9.342 39.562a.56.56 0 0 1 .033 1.12c-.265.008-.371.072-.439.137-.09.087-.187.25-.303.59-.18.523-.22 1.066-.244 1.673-.022.585-.026 1.26-.168 1.92-.148.68-.096 1.385.029 2.12.056.327.228.62.49.972.238.32.6.74.84 1.195 1.087 2.065 2.948 3.366 4.882 4.867.817.634 1.858 1.3 2.575 2.346.077.113.218.218.473.355.213.114.571.28.846.476 1.496 1.069 2.99 2.108 4.553 3.024.735.43 1.533.741 2.377 1.034.821.285 1.714.561 2.56.907l.068-.014c.079-.02.375-.113.69.004a.56.56 0 0 1-.342 1.066l-.085.019c-.126.03-.41.104-.734-.029-.815-.334-1.646-.59-2.524-.894-.862-.3-1.745-.639-2.577-1.126-1.609-.944-3.137-2.008-4.637-3.08-.198-.14-.408-.23-.726-.4-.276-.148-.626-.359-.866-.708-.588-.858-1.41-1.375-2.338-2.095-1.854-1.438-3.96-2.9-5.187-5.23-.185-.35-.438-.633-.747-1.048-.285-.383-.593-.854-.696-1.453-.134-.79-.211-1.659-.02-2.545.117-.539.12-1.086.144-1.725.024-.617.067-1.303.303-1.993.13-.377.296-.756.59-1.037.316-.304.715-.434 1.18-.448M63.45 51.263a.56.56 0 1 1 .698.876c-.515.41-1.093.606-1.609.752-.511.144-.928.234-1.324.403l-.079.035c-1.228.563-2.482 1.165-3.767 1.676-.149.06-.298.112-.433.16-.139.05-.264.095-.385.145-.24.097-.439.204-.612.354-.426.367-.927.513-1.368.587-.221.037-.44.058-.635.074-.203.018-.373.03-.532.052-1.006.136-1.988.376-2.982.648-.98.27-2 .578-3.017.827-.836.205-1.676.315-2.496.4-.73.077-1.424.132-2.122.216l-.3.037c-.124.017-.246.023-.34.027a3 3 0 0 0-.244.018c-.121.017-.172.044-.215.086a.56.56 0 0 1-.788-.797c.276-.272.59-.363.852-.399.123-.017.246-.022.34-.027.102-.005.178-.01.248-.018.819-.11 1.662-.174 2.453-.257.804-.084 1.584-.187 2.345-.374 1-.245 1.966-.54 2.988-.82 1.009-.276 2.047-.532 3.128-.677l.147-.018c.149-.017.3-.028.439-.04.193-.017.373-.034.546-.063.348-.058.617-.156.82-.331.301-.259.621-.42.92-.543.149-.06.297-.113.434-.162.14-.05.268-.095.395-.146 1.25-.498 2.461-1.08 3.715-1.654l.099-.044c.497-.212 1.04-.333 1.465-.454.484-.137.883-.284 1.216-.55M36.571.167a.56.56 0 0 1 .75-.097l.08-.013c.101-.02.488-.132.861.054l.036.019.137.073c.692.352 1.457.53 2.318.773.888.25 1.851.566 2.683 1.26.081.068.224.118.528.205.721.207 1.429.573 1.99.94 1.088.71 2.43 1.413 3.484 2.44 1.485 1.447 3.038 2.888 4.454 4.479.956 1.073 1.96 2.099 2.966 3.174.166.177.299.373.409.543.118.183.205.327.308.466.178.241.338.375.569.425l.047.008.028.006a.56.56 0 0 1-.176 1.105l-.028-.004-.062-.01c-.629-.12-1.01-.501-1.279-.864-.13-.176-.252-.374-.348-.522a3 3 0 0 0-.286-.388c-.98-1.048-2.018-2.108-2.985-3.194-1.209-1.358-2.513-2.596-3.833-3.872l-.566-.549c-.95-.926-2.1-1.513-3.314-2.305-.498-.325-1.103-.633-1.687-.801-.231-.066-.636-.17-.937-.421-.637-.531-1.399-.797-2.27-1.043-.828-.234-1.797-.457-2.662-.927-.02.003-.07.01-.17.03-.17.033-.573.116-.944-.171l-.035-.03-.022-.019a.56.56 0 0 1-.044-.77M29.643 18.594c.558-.096 1.169-.166 1.83-.08 2.075.265 3.515 1.492 4.854 2.593a.56.56 0 0 1-.711.865c-1.383-1.136-2.581-2.129-4.286-2.347-.498-.064-.981-.016-1.497.073-.487.084-1.08.221-1.64.283-.553.061-1.084.26-1.639.532-.277.136-.552.286-.837.442-.282.154-.575.315-.871.463-.833.417-1.482 1.19-2.153 2.056a28.3 28.3 0 0 0-4.592 8.694c-.108.334-.294.613-.435.826-.154.232-.267.402-.34.593-.882 2.325-1.088 4.642-.55 7.076.088.399.154.815.222 1.188.07.384.145.745.257 1.093.054.17.142.325.26.503.101.15.284.396.412.605.09.147.196.293.317.456.116.157.252.334.374.518.25.372.492.825.544 1.394l.002.042c.437.285.699.707.89.986.25.368.42.576.692.675.33.122.556.38.699.562.075.095.15.2.21.282.065.088.118.158.17.217 1.224 1.39 2.588 2.525 4.273 3.22.835.346 1.456.977 1.97 1.536.52.565 1.192.853 2.03 1.186.458.181.879.427 1.263.657.396.236.748.454 1.119.629.45.211.939.337 1.469.436.265.05.534.092.814.135.276.044.563.089.848.144a.56.56 0 0 1-.184 1.105l-.029-.005-.198-.036q-.299-.053-.61-.1c-.276-.044-.562-.088-.847-.141-.57-.107-1.165-.254-1.74-.524-.434-.204-.845-.46-1.218-.682-.383-.23-.735-.432-1.1-.576-.82-.325-1.725-.692-2.44-1.469-.514-.557-.99-1.017-1.576-1.259-1.89-.782-3.389-2.043-4.686-3.516a4 4 0 0 1-.232-.295c-.071-.098-.127-.176-.186-.25-.127-.161-.188-.197-.205-.204-.645-.236-.99-.74-1.233-1.096-.27-.398-.421-.615-.666-.728a.73.73 0 0 1-.427-.66c-.002-.076.007-.151.009-.171l.001-.014c-.03-.294-.157-.559-.357-.856-.103-.155-.216-.303-.342-.474a7 7 0 0 1-.374-.54c-.12-.195-.223-.322-.386-.564a3 3 0 0 1-.397-.786 10 10 0 0 1-.292-1.235c-.075-.408-.132-.775-.214-1.146-.587-2.659-.36-5.197.597-7.715.125-.33.314-.606.453-.815.15-.227.249-.385.303-.552a29.5 29.5 0 0 1 4.772-9.035c.658-.848 1.446-1.826 2.538-2.372.274-.137.547-.287.834-.444.283-.155.58-.317.882-.465.606-.297 1.272-.558 2.009-.64.522-.057.985-.172 1.573-.273M-2.195 59.565a.56.56 0 0 1 .702-.368c.914.286 1.537.532 2.299.308.472-.138.946-.076 1.342.028.394.104.774.268 1.054.383 1.331.547 2.702.979 4.103 1.438 1.391.456 2.805.938 4.172 1.576.87.406 1.781.737 2.72 1.063.93.323 1.896.644 2.835 1.019 1.067.427 2.176.728 3.325 1.055 1.065.303 2.16.628 3.218 1.092l.21.094.027.013a.56.56 0 0 1-.494 1.006c-1.036-.476-2.13-.804-3.268-1.127-1.126-.32-2.3-.64-3.434-1.093-.907-.362-1.835-.67-2.786-1-.944-.328-1.902-.675-2.827-1.107-1.3-.607-2.658-1.07-4.047-1.526-1.38-.453-2.801-.9-4.18-1.467-.308-.126-.608-.255-.913-.335q-.454-.12-.742-.036c-1.16.34-2.157-.067-2.948-.315a.56.56 0 0 1-.368-.701M8.81 17.06c.386.004.72.173 1 .407a.56.56 0 0 1-.716.861c-.155-.128-.248-.147-.295-.147s-.142.015-.305.147c-1.295 1.05-2.485 2.13-3.466 3.441-1.677 2.242-3.484 4.41-5.566 6.339-.217.2-.39.444-.562.733-.154.257-.358.64-.555.943-.405.622-.898 1.147-1.382 1.629-.497.494-.964.923-1.394 1.41-.479.54-.86 1.154-1.277 1.816-.394.627-.821 1.295-1.37 1.89a.56.56 0 0 1-.568.943 1.2 1.2 0 0 1-.488-.317.8.8 0 0 1-.2-.6c.016-.192.095-.349.162-.454.07-.11.153-.206.225-.282.49-.52.878-1.122 1.291-1.777.404-.642.835-1.34 1.386-1.962.461-.522.986-1.007 1.443-1.462.47-.467.894-.925 1.233-1.445.193-.298.318-.551.533-.909.195-.325.43-.672.761-.979 2.014-1.865 3.775-3.975 5.43-6.187 1.064-1.421 2.337-2.57 3.658-3.64.295-.239.636-.402 1.022-.398"/><path d="M27.599 24.25a.56.56 0 0 1 1.067.341l-.025.081c-.268.832-.847 1.427-1.317 1.924-2.138 2.26-2.952 4.916-2.822 8.09.053 1.326.227 2.63.398 3.958.14 1.088.396 2.1 1.108 2.892.249.277.429.593.578.871.159.297.276.538.426.766 1.623 2.468 3.907 4.24 6.456 5.8.05.031.123.06.263.119.06.025.133.056.203.092.059.03.138.074.214.137l.032.028.052.046c.538.47 1.144.695 1.82.813.732.128 1.451.123 2.298.19.787.062 1.582.155 2.346.232a.56.56 0 0 1-.082 1.117l-.029-.002-1.169-.122q-.576-.06-1.154-.108c-.725-.057-1.605-.063-2.404-.203-.83-.146-1.667-.443-2.417-1.121l-.017-.01a2 2 0 0 0-.124-.055c-.094-.039-.273-.108-.417-.197-2.609-1.596-5.053-3.473-6.807-6.14-.187-.284-.345-.605-.478-.853-.143-.267-.27-.48-.424-.651-.946-1.053-1.239-2.351-1.386-3.498-.168-1.315-.35-2.671-.406-4.055-.14-3.421.748-6.39 3.128-8.906.518-.548.913-.976 1.08-1.549zM31.642-2.989a.56.56 0 0 1 .75-.252c.213.106.448.124.816.13.338.004.811-.005 1.29.166.838.3 1.698.463 2.64.696.92.228 1.88.515 2.78 1.063.18.11.41.173.742.247.298.068.7.148 1.061.325 2.624 1.289 5.57 2.392 7.978 4.437.653.554 1.341 1.072 2.047 1.594.7.519 1.422 1.044 2.118 1.6.254.204.383.25.57.242.486-.023.84.24 1.056.42l.084.071.407.338c2.047 1.687 4.304 3.334 6.199 5.274.585.6 1.162 1.09 1.81 1.72.616.601 1.222 1.265 1.693 2.065a.56.56 0 0 1-.951.592l-.015-.024-.076-.126c-.386-.621-.882-1.166-1.433-1.704-.557-.542-1.257-1.154-1.83-1.74-1.972-2.02-4.276-3.648-6.525-5.537a2 2 0 0 0-.262-.198c-.053-.03-.08-.033-.103-.032-.57.027-.963-.196-1.324-.485-.675-.54-1.374-1.05-2.085-1.575a40 40 0 0 1-2.105-1.64c-2.266-1.926-4.988-2.931-7.747-4.286-.215-.106-.467-.16-.814-.238-.315-.07-.72-.165-1.077-.382-.751-.457-1.576-.713-2.467-.933-.866-.214-1.84-.404-2.748-.729-.27-.095-.54-.096-.928-.101-.359-.005-.833-.015-1.3-.247a.56.56 0 0 1-.252-.75"/><path d="M21.729 36.265a.56.56 0 0 1 .392 1.044l.032.096c.088.254.152.503.185.783.19 1.614.463 3.191 1.198 4.406 1.327 2.19 2.688 4.291 4.793 5.674l.1.066.093.061c.21.148.402.322.539.436.175.146.317.246.477.309.784.304 1.512.7 2.207 1.093.705.399 1.364.79 2.055 1.122.489.235.953.505 1.399.772.452.27.877.533 1.318.774.873.477 1.744.835 2.754.895 2.46.145 4.781-.025 7.08-.82.674-.234 1.336-.502 2.017-.774.676-.27 1.37-.543 2.084-.776.658-.214 1.266-.564 1.904-.969.62-.395 1.294-.86 2.008-1.225 2.239-1.147 4.537-2.113 6.956-2.802.72-.205 1.634-.188 2.412.32a.56.56 0 1 1-.613.938c-.442-.289-1.003-.32-1.492-.18-2.334.664-4.563 1.6-6.753 2.722-.652.334-1.247.747-1.917 1.173-.653.415-1.36.83-2.159 1.089-.675.22-1.338.48-2.015.75-.672.269-1.36.548-2.066.792-2.48.859-4.958 1.032-7.512.88-1.246-.073-2.287-.517-3.226-1.03-.465-.255-.921-.535-1.356-.795a17 17 0 0 0-1.309-.724c-.735-.354-1.443-.773-2.122-1.157-.688-.39-1.357-.751-2.059-1.024a2.8 2.8 0 0 1-.79-.492c-.22-.184-.349-.307-.517-.414-2.408-1.539-3.908-3.892-5.248-6.104-.875-1.444-1.164-3.245-1.353-4.855a2.5 2.5 0 0 0-.13-.545c-.029-.082-.137-.361-.116-.651a.92.92 0 0 1 .209-.53c.143-.172.336-.274.54-.328"/><path d="M28.434 20.95c.888-.454 1.97-.735 2.997-.473 1.132.29 2.575.578 3.633 1.674q.014.008.05.018a.5.5 0 0 0 .14.015c.678-.076 1.161.192 1.524.495.17.14.329.303.456.428.137.134.249.238.362.317.377.266.729.607.93 1.054.198.438.227.927.066 1.451l.01.02c.653 1.215.727 2.557.833 3.724a.56.56 0 0 1-.26.957c-.117.026-.362.072-.593-.055-.33-.182-.34-.518-.324-.65.01-.09.037-.174.054-.223-.108-1.21-.184-2.268-.697-3.223-.086-.159-.23-.478-.11-.824l.018-.058c.086-.285.057-.491-.019-.659-.088-.196-.267-.395-.554-.598a4 4 0 0 1-.501-.434c-.15-.147-.264-.263-.388-.366-.224-.187-.412-.273-.682-.242-.183.02-.38 0-.556-.047a1.2 1.2 0 0 1-.553-.309c-.79-.829-1.872-1.06-3.117-1.379-.663-.17-1.453-.002-2.208.385a1 1 0 0 0-.131.088c-.057.043-.155.117-.264.178a1.2 1.2 0 0 1-.452.147 1.2 1.2 0 0 1-.506-.064.694.694 0 0 0-.204.076.3.3 0 0 0-.06.042c-.297.301-.628.518-.939.697-.155.09-.312.173-.456.251-.148.08-.286.155-.418.234-1.467.88-2.367 2.265-3.238 3.824-.469.838-.903 1.643-1.184 2.508-.372 1.141-.736 2.056-.689 3.168.023.54-.018 1.082-.06 1.594-.041.523-.083 1.013-.075 1.5.033 1.942.334 3.84.568 5.827.008.065.029.205.034.33.005.127 0 .318-.08.51-.174.41-.161.721-.063.99.107.29.334.584.681.9.434.394.664.847.832 1.35.099.295.305.527.62.78.162.13.328.248.52.39.184.135.384.288.57.463.982.93 1.929 1.833 2.993 2.614.812.596 1.45.99 2.315 1.007.606.013 1.21.268 1.664.532a12 12 0 0 0 1.085.538c.38.17.79.349 1.183.551.782.402 1.564.93 2.132 1.822q.036.017.13.044c.083.022.164.04.276.066.075.018.163.04.252.068l.089.03.027.01a.56.56 0 0 1-.383 1.052l-.027-.009-.043-.014a3 3 0 0 0-.175-.047c-.085-.02-.205-.046-.31-.075a2 2 0 0 1-.367-.137 1 1 0 0 1-.39-.35c-.419-.675-1.012-1.098-1.723-1.463-.36-.185-.733-.347-1.13-.526a13 13 0 0 1-1.19-.592c-.379-.22-.789-.373-1.122-.38-1.244-.024-2.13-.617-2.956-1.224-1.131-.83-2.13-1.784-3.1-2.703a5 5 0 0 0-.465-.376c-.17-.124-.371-.268-.557-.417-.378-.304-.781-.702-.98-1.298-.132-.394-.28-.655-.523-.877-.407-.37-.784-.809-.98-1.343-.202-.551-.192-1.15.075-1.794v-.045l-.009-.105-.008-.066-.01-.075c-.227-1.928-.541-3.922-.575-5.94-.009-.551.038-1.1.079-1.607.041-.518.076-.996.057-1.457-.058-1.365.4-2.513.742-3.563.32-.98.805-1.872 1.272-2.708.88-1.572 1.898-3.193 3.64-4.238.156-.093.313-.179.461-.259.152-.082.292-.156.43-.236.273-.157.505-.316.7-.513.17-.171.402-.297.612-.37.176-.06.465-.13.745-.045l.055.02.028.009.015.003q.005-.002.018-.01c.033-.017.068-.043.144-.1.065-.048.167-.123.287-.184M16.572 47.808a.56.56 0 0 1 .77.066l.018.022.197.245c.984 1.22 1.974 2.344 3.226 3.192.467.316.897.668 1.307 1.011.416.348.805.682 1.217.99 1.068.8 2.206 1.427 3.398 2.134 1.282.76 2.33 1.552 3.594 2.049.69.271 1.397.514 2.115.758.714.243 1.443.488 2.162.758.08.03.166.03.374-.006.171-.03.514-.11.87-.028a.56.56 0 0 1-.228 1.097l-.028-.006-.031-.005c-.073-.01-.162.005-.39.045-.222.04-.574.097-.96-.048-.7-.263-1.409-.5-2.13-.746a49 49 0 0 1-2.164-.776c-1.374-.54-2.612-1.45-3.755-2.128-1.151-.683-2.368-1.353-3.499-2.2-.442-.333-.863-.693-1.264-1.028a17 17 0 0 0-1.061-.836l-.155-.107c-1.397-.946-2.476-2.184-3.472-3.418l-.198-.247-.018-.023a.56.56 0 0 1 .105-.765"/><path d="M60.673 48.223c.15-.07.46-.175.777-.081a.8.8 0 0 1 .488.405c.103.204.109.425.08.62l-.004.028a.56.56 0 0 1-1.056.13c-.496.227-.998.43-1.485.628-.556.227-1.094.449-1.617.704-1.31.64-2.526 1.42-3.838 2.184-1.294.752-2.653 1.47-4.165 1.91-2.104.614-4.257 1.301-6.512 1.636-.971.144-1.928.151-2.855.13-.883-.02-1.715-.064-2.558-.053l-.17.004c-.593.013-1.002-.303-1.25-.653h-.026a1 1 0 0 1-.127-.012.56.56 0 0 1 .168-1.108h.04c.033 0 .119-.002.21.012.102.015.222.05.343.13a.94.94 0 0 1 .28.292q.081.126.158.172a.3.3 0 0 0 .18.046c.934-.02 1.883.03 2.777.05.909.02 1.79.011 2.665-.119 2.16-.32 4.22-.977 6.363-1.602 1.378-.402 2.642-1.063 3.916-1.804 1.256-.73 2.552-1.558 3.909-2.222.561-.274 1.132-.509 1.686-.734.558-.228 1.097-.445 1.623-.693M10.782.778a.56.56 0 0 1 .515.996c-1.906.985-3.666 1.764-5.17 3.273C4.493 6.687 2.632 8.434.236 9.383c-.127.05-.264.154-.451.333-.16.153-.398.404-.635.59-1.514 1.186-3.005 2.17-4.371 3.413-.112.101-.198.177-.274.256a.6.6 0 0 0-.117.15.9.9 0 0 1-.408.451.74.74 0 0 1-.585.023 1 1 0 0 1-.135-.06l-.01-.005a.56.56 0 0 1-.079-1.104.7.7 0 0 1 .317 0l.012.003a2 2 0 0 1 .197-.235c.11-.114.238-.226.328-.308 1.4-1.274 3.017-2.357 4.434-3.467.18-.141.322-.298.553-.518.204-.195.471-.429.811-.563 2.159-.856 3.878-2.447 5.51-4.086 1.66-1.664 3.622-2.533 5.449-3.478M-6.795 14.511q-.013-.005.002 0zM38.555 2.721a.86.86 0 0 1 .382-.062c.097.005.185.024.25.04 3.31.82 6.358 2.12 9.05 4.46 3.42 2.975 6.294 6.44 9.218 9.75 2.244 2.541 4.61 4.911 7.176 7.096.168.143.335.217.634.402.263.162.583.392.799.784a.56.56 0 0 1-.982.54c-.075-.135-.196-.24-.407-.371-.176-.11-.516-.286-.77-.502-2.612-2.223-5.016-4.632-7.29-7.207-2.957-3.348-5.765-6.733-9.114-9.646-2.462-2.14-5.258-3.37-8.365-4.163a.558.558 0 0 1-1.009-.232.9.9 0 0 1 .039-.488.72.72 0 0 1 .389-.4M18.662 19.486a.56.56 0 1 1 .07 1.118l-.09.005-.066.002-.05.004-.01.008c-2.573 2.503-4.883 5.13-6.436 8.34-.29.596-.757 1.469-1.831 1.739-.016.004-.07.025-.155.12a2 2 0 0 0-.261.398c-.444.846-.933 1.668-1.4 2.473-.47.811-.921 1.613-1.31 2.447-.563 1.211-1.392 2.306-2.205 3.296-.518.63-.904 1.345-1.288 2.115-.376.754-.76 1.58-1.254 2.342-.43.664-.89 1.462-1.613 2.078-.147.125-.275.234-.381.347a.8.8 0 0 0-.184.26c-.1.277-.25.59-.533.803-.29.218-.63.264-.97.225l-.007.008q-.01.014-.006.008c-.411 1.005-1.126 1.639-1.852 2.139-.357.246-.739.473-1.081.687a9 9 0 0 0-.968.67c-.152.125-.33.231-.536.27a.87.87 0 0 1-.584-.091 1.3 1.3 0 0 1-.309-.243c-.08-.082-.103-.11-.145-.146a.56.56 0 0 1 .718-.86l.022.018.065.06.055.055.04.042c.34-.274.702-.51 1.049-.726.368-.23.71-.432 1.038-.659.646-.444 1.158-.924 1.45-1.64.083-.204.232-.385.409-.513.166-.12.404-.224.68-.202l.12.014a.5.5 0 0 0 .113-.003c.022-.004.026-.009.027-.01.014-.01.07-.063.152-.288.096-.266.265-.482.422-.647s.334-.315.47-.43c.566-.483.922-1.1 1.398-1.835.45-.694.796-1.44 1.193-2.234.389-.78.82-1.59 1.424-2.325.801-.977 1.555-1.981 2.056-3.058.41-.883.883-1.72 1.356-2.536.476-.822.947-1.613 1.376-2.432.11-.21.249-.435.421-.627.171-.19.406-.38.715-.457.535-.135.81-.552 1.095-1.141 1.638-3.383 4.057-6.118 6.664-8.654.378-.368.812-.327.927-.334"/><path d="M10.364 29.61a.56.56 0 0 1 .717.285l.011.027.03.076c.288.78.153 1.462-.098 2.044-.124.29-.28.563-.423.807-.149.253-.279.47-.385.69-1.486 3.072-2.539 6.313-3.632 9.58-.448 1.339-.456 2.88-.416 4.46l.003.045a.6.6 0 0 0 .07.216l.017.028c.439.52.808 1.131 1.145 1.623.353.517.704.958 1.163 1.289a.56.56 0 0 1-.632.925l-.024-.017-.114-.085c-.56-.433-.968-.967-1.318-1.479-.39-.57-.686-1.071-1.076-1.534a1.67 1.67 0 0 1-.354-.983c-.04-1.566-.045-3.294.473-4.843 1.087-3.246 2.163-6.563 3.686-9.713.13-.27.29-.534.426-.768.143-.244.267-.463.362-.684.17-.394.232-.758.089-1.176l-.042-.111a.56.56 0 0 1 .322-.702M51.177 25.181c.3-.008.551.221.574.517l.002.028.003.096c.01.215.037.364.114.52 1.485 3.027 2.665 6.182 3.833 9.299.493 1.315.605 2.754.714 4.061.023.269.056.481.136.705.295.817.412 1.734-.083 2.69-.118.226-.14.502-.19.947-.044.385-.115.93-.484 1.366-.337.399-.508.86-.822 1.469-.294.57-.692 1.198-1.454 1.602-1.073.57-2.09 1.275-3.116 2.005-.624.444-1.31.723-1.935.97-.644.256-1.22.478-1.737.81-.697.446-1.443.582-2.121.656-.716.078-1.293.087-1.88.234-1.828.457-3.671.356-5.458-.214l-.173-.056-.027-.01a.56.56 0 0 1 .385-1.052c1.656.556 3.34.66 5.002.244.685-.171 1.44-.196 2.03-.26.627-.068 1.163-.182 1.637-.486.628-.402 1.315-.663 1.93-.907.632-.25 1.198-.487 1.697-.842 1.026-.73 2.096-1.474 3.241-2.082.457-.242.723-.62.983-1.126.24-.466.516-1.15.962-1.678.126-.148.18-.367.226-.77.04-.343.073-.88.309-1.336.3-.58.258-1.147.024-1.794a3.7 3.7 0 0 1-.199-.992c-.111-1.342-.217-2.617-.646-3.761-1.172-3.126-2.333-6.229-3.79-9.2a2.3 2.3 0 0 1-.227-.956l-.005-.121v-.03a.56.56 0 0 1 .545-.546M5.508 38.914a.56.56 0 1 1 .977.548c-.485.865-.827 1.799-1.198 2.784-.366.97-.76 1.986-1.34 2.929-.525.852-.912 1.72-1.41 2.662-.498.939-1.294 1.689-2.237 2.216-.521.292-.985.668-1.532 1.073-.535.396-1.131.643-1.66.86-.55.225-1.029.42-1.454.713a4 4 0 0 0-.316.257c-.116.1-.258.227-.414.339-.327.234-.761.442-1.331.361a.56.56 0 0 1 .127-1.112l.029.003.033.004c.168.015.309-.038.489-.167.103-.074.204-.162.33-.272.117-.103.26-.228.416-.335.544-.375 1.143-.614 1.665-.828.543-.222 1.012-.422 1.42-.724.493-.365 1.048-.812 1.651-1.15.786-.439 1.412-1.044 1.793-1.763.452-.852.9-1.837 1.447-2.725.517-.84.877-1.76 1.245-2.736.363-.961.735-1.983 1.27-2.937"/><path d="M28.337 27.018a.56.56 0 0 1 .741.214l.014.026.027.053c.262.55.179 1.125-.032 1.563-.253.524-.329 1.1-.398 1.772-.065.644-.124 1.4-.402 2.118 0 0-.01.028-.008.1q.004.103.031.243c.473 2.497 1.01 4.86 2.433 6.87.127.18.238.363.338.534.105.178.194.334.292.49.193.306.381.544.626.717 1.12.788 2.136 1.539 3.33 1.992a13 13 0 0 0 4.66.877c.777.002 1.464.03 2.159-.07l.028-.004a.56.56 0 0 1 .133 1.113c-.8.116-1.605.084-2.324.082a14.1 14.1 0 0 1-5.054-.95c-1.355-.515-2.5-1.366-3.577-2.124-.423-.298-.706-.68-.93-1.036-.11-.175-.214-.358-.308-.519a6 6 0 0 0-.288-.454c-1.578-2.232-2.147-4.817-2.62-7.31-.038-.205-.103-.6.034-.955.212-.548.262-1.134.332-1.828.068-.665.156-1.422.504-2.145.098-.203.111-.406.036-.58l-.017-.034-.012-.025a.56.56 0 0 1 .252-.73M15.04 5.375a.56.56 0 1 1 .59.953c-.675.417-1.366.809-2.036 1.197-.675.391-1.333.782-1.967 1.21-2.759 1.862-5.314 3.98-7.924 6.102C2.6 15.735 1.747 16.762.7 17.824a.56.56 0 1 1-.798-.787c.962-.976 1.928-2.12 3.094-3.07C5.591 11.858 8.19 9.704 11 7.808c.667-.451 1.354-.858 2.032-1.251.683-.396 1.352-.775 2.008-1.18M12.623 20.582a.56.56 0 0 1 .941.608c-1.539 2.383-3.472 4.449-5.304 6.494-.34.379-.705.741-1.044 1.088-.346.352-.672.695-.965 1.06a4 4 0 0 0-.178.235q.203.426.194.85a1.9 1.9 0 0 1-.275.928 4 4 0 0 1-.496.65c-.177.197-.306.327-.414.464-.952 1.216-1.764 2.51-2.625 3.831-1.094 1.68-2.44 3.239-3.59 4.777-.539.72-1.276 1.294-2.248 1.547-.042.01-.11.048-.236.194-.063.072-.12.148-.197.247-.072.092-.158.2-.256.303-.11.114-.214.241-.329.384-.11.138-.234.297-.364.447-.262.305-.59.63-1.05.843a.56.56 0 0 1-.473-1.015c.249-.116.454-.303.674-.56.113-.13.217-.264.34-.416.117-.147.247-.305.392-.457.055-.058.111-.128.181-.218.065-.083.147-.19.232-.29.17-.196.424-.448.804-.547.688-.179 1.22-.583 1.632-1.133 1.221-1.633 2.476-3.07 3.55-4.718.845-1.297 1.69-2.645 2.681-3.91.14-.179.329-.374.465-.524.15-.167.273-.315.359-.463a.8.8 0 0 0 .123-.384c.002-.115-.029-.272-.162-.487a.64.64 0 0 1-.092-.384.8.8 0 0 1 .05-.22c.037-.103.093-.2.14-.273.095-.151.216-.306.295-.404.33-.41.688-.785 1.037-1.141.355-.362.693-.697 1.01-1.052 1.86-2.075 3.718-4.063 5.198-6.354"/><path d="M29.034 23.281c.665-.657 1.539-.743 2.252-.332.251.144.526.227.855.304.306.072.706.148 1.077.28a.56.56 0 1 1-.376 1.056c-.292-.105-.58-.156-.958-.245a4.3 4.3 0 0 1-1.082-.383l-.075-.041c-.27-.155-.594-.15-.905.158-.586.58-1.387.937-2.344.608-.12-.041-.285-.01-.547.148-.794.48-1.455.94-1.877 1.655a48 48 0 0 0-1.67 3.043c-.802 1.615-1.035 3.334-1.063 5.182-.007.426-.136.879-.194 1.166-.067.328-.082.567-.005.795a.56.56 0 1 1-1.062.358c-.173-.516-.109-.995-.031-1.376.086-.423.167-.673.171-.96.03-1.925.272-3.835 1.181-5.664a49 49 0 0 1 1.708-3.114c.577-.976 1.459-1.558 2.263-2.044.311-.188.868-.463 1.49-.249.443.152.814.029 1.192-.345M54.033 7.347a.56.56 0 0 1 .52.598c-.059.83.512 1.364 1.248 2.04 1.828 1.68 3.537 3.52 5.259 5.234 1.575 1.568 3.39 3.119 4.861 4.936.144.177.425.478.548.891l.023.084.006.029a.56.56 0 0 1-1.097.229c-.034-.147-.123-.247-.35-.528-1.423-1.756-3.122-3.194-4.782-4.847-1.766-1.758-3.418-3.541-5.227-5.203-.636-.585-1.71-1.484-1.607-2.944a.56.56 0 0 1 .598-.519M9.983 3.236a.56.56 0 0 1 .618.935c-1.386.916-2.667 1.963-4.005 3.018-.904.713-1.735 1.48-2.644 2.255-.895.764-1.841 1.512-2.909 2.12-.654.374-1.238.84-1.903 1.328-.649.476-1.356.96-2.186 1.28a.56.56 0 0 1-.403-1.046c.683-.263 1.29-.671 1.925-1.137.618-.454 1.284-.983 2.013-1.398.975-.555 1.857-1.25 2.736-2 .864-.737 1.753-1.553 2.677-2.281 1.316-1.038 2.645-2.125 4.081-3.074"/><path d="M30.832 24.994a.56.56 0 0 1 .036 1.12l-.097.008a1.1 1.1 0 0 0-.516.18c-.152.104-.296.268-.424.524-.122.247-.3.565-.579.805-.295.255-.68.4-1.15.351l-.06.095c-.791 1.335-1.302 2.772-1.63 4.313-.044.206-.036.414-.009.679.025.244.074.581.056.92-.073 1.404.23 2.786.632 4.203.057.201.153.401.279.655.116.237.262.529.351.845.355 1.25 1.203 2.291 2.096 3.26 1.18 1.282 2.3 2.433 4.075 2.347.463-.022.888.15 1.212.294.364.161.622.295.902.365 2.148.535 4.303.83 6.49.784.506-.011.995-.156 1.522-.364.485-.191 1.106-.485 1.668-.677.74-.253 1.56-.57 2.426-.715.17-.029.484-.042.725.2.238.24.227.55.201.717a.56.56 0 0 1-1.01.24c-.65.14-1.275.378-1.98.618-.55.188-1.005.417-1.618.66-.573.226-1.207.426-1.91.44-2.305.049-4.56-.262-6.785-.816-.404-.1-.804-.303-1.086-.428-.3-.134-.503-.198-.67-.2l-.033.002c-2.366.113-3.822-1.478-4.953-2.707-.901-.979-1.917-2.187-2.35-3.714-.057-.202-.153-.402-.279-.656-.116-.237-.262-.528-.351-.845-.41-1.444-.756-2.972-.673-4.567.012-.226-.02-.436-.052-.747-.03-.29-.054-.642.028-1.027.348-1.634.897-3.191 1.762-4.65.069-.115.183-.305.363-.446a1 1 0 0 1 .758-.194c.164.02.248-.02.322-.084.1-.086.196-.232.308-.456.193-.387.45-.714.793-.949a2.3 2.3 0 0 1 1.181-.382zM5.354 48.006a.56.56 0 1 1 .725.854c-.523.444-.667.785-.668 1.013 0 .212.126.52.644.901.826.608 1.54 1.154 2.448 1.492.918.342 1.815.984 2.496 1.776.174.2.39.364.654.526.132.082.27.16.42.244.145.082.303.17.458.267.281.173.567.328.88.506.305.174.624.363.927.585.617.452 1.179 1.046 1.493 1.958.029.084.147.233.431.42.265.175.59.329.892.459.694.298 1.346.663 1.968 1.014.63.355 1.229.696 1.856.975.144.064.218.1.3.127.067.02.103.021.131.017a.56.56 0 0 1 .178 1.106c-.477.077-.883-.145-1.065-.226-.685-.306-1.332-.674-1.95-1.023-.628-.354-1.23-.69-1.86-.96a7 7 0 0 1-1.067-.553c-.33-.218-.718-.54-.873-.99-.22-.638-.606-1.061-1.096-1.42a9 9 0 0 0-.82-.515c-.287-.164-.61-.34-.913-.526-.134-.083-.272-.161-.421-.245-.146-.083-.303-.171-.457-.266a3.8 3.8 0 0 1-.915-.75c-.57-.66-1.313-1.186-2.037-1.456-.95-.353-1.716-.897-2.422-1.418l-.3-.221c-.653-.48-1.103-1.083-1.1-1.808.002-.71.44-1.334 1.063-1.863M56.284 30.273a.56.56 0 0 1 .73.254l.012.026.113.247c1.186 2.538 2.829 4.81 4.524 7.1.612.827 1.38 1.584 2.175 2.364.612.6 1.257 1.115 1.947 1.615l.298.213.023.017a.56.56 0 0 1-.645.914l-.025-.016-.308-.22c-.717-.52-1.41-1.071-2.075-1.723-.783-.768-1.617-1.587-2.291-2.497-1.69-2.284-3.398-4.639-4.639-7.294l-.118-.258-.012-.027a.56.56 0 0 1 .291-.715M29.097-1.672a.7.7 0 0 1 .474.034c.092.04.172.094.22.129.05.036.108.08.14.105l.048.035.025.017.024.015a.56.56 0 0 1-.576.96l-.025-.014-.05-.032a2 2 0 0 1-.124-.089L29.23-.53c-.88.294-1.76.332-2.583.33-.922-.004-1.733-.055-2.545.066-3.207.476-6.28 1.45-9.308 2.668-.374.15-.755.265-1.119.37-.371.106-.715.199-1.057.31l-.094.035a.56.56 0 0 1-1.11-.141l.006-.059a.97.97 0 0 1 .367-.658c.173-.138.372-.205.481-.24.37-.122.75-.225 1.099-.325a10 10 0 0 0 1.01-.332c3.077-1.237 6.237-2.243 9.56-2.737.923-.137 1.878-.081 2.714-.078.865.003 1.652-.046 2.403-.336z"/><path d="M41.74 19.584a.56.56 0 0 1 .976.55c-.13.23-.133.443-.063.698.085.31.228.546.397.944 1.078 2.541 2.138 5.115 2.607 7.971.292 1.777.447 3.545.545 5.304.069 1.241-.021 2.666-.886 3.907a3.6 3.6 0 0 1-.37.463c-.141.144-.355.321-.64.385-.533.119-1.023.353-1.529.644-.254.147-.503.302-.766.463-.26.16-.53.324-.81.475-.61.328-1.221.384-1.75.4-.527.015-.92-.004-1.317.072l-.08.017a.74.74 0 0 1-.482-.045.67.67 0 0 1-.341-.386.9.9 0 0 1-.046-.268v-.121l.001-.03a.56.56 0 0 1 1.007-.308c.441-.053.879-.041 1.225-.052.48-.014.877-.065 1.25-.266.251-.135.5-.285.757-.443.254-.155.521-.322.793-.479.544-.313 1.145-.61 1.835-.764.002-.002.033-.017.093-.078q.112-.118.25-.32c.648-.93.752-2.04.687-3.204-.096-1.736-.249-3.46-.532-5.184-.444-2.708-1.452-5.167-2.533-7.715-.103-.243-.335-.683-.445-1.085-.126-.456-.146-.99.167-1.546M48.309-6.873a.56.56 0 0 1 .746.197l.014.025.059.103c.138.231.29.411.52.587.75.576 1.565 1.059 2.414 1.55.84.487 1.72.985 2.548 1.574.69.491 1.411.946 2.148 1.405.733.457 1.484.92 2.213 1.416.817.557 1.593 1.216 2.336 1.814l.317.251.022.019a.56.56 0 0 1-.691.88l-.024-.018-.334-.265c-.77-.619-1.476-1.222-2.258-1.755-.704-.48-1.432-.93-2.173-1.391a43 43 0 0 1-2.206-1.443c-.775-.552-1.602-1.02-2.459-1.517-.848-.49-1.721-1.005-2.536-1.63a3.1 3.1 0 0 1-.838-.968l-.04-.073-.014-.026a.56.56 0 0 1 .236-.735M14.47 32.226a.56.56 0 0 1 .73.308c.392.963.106 1.823-.14 2.55-.13.383-.192.8-.253 1.276-.058.458-.118.98-.26 1.481-.358 1.27-.37 2.57-.319 3.94.032.863.449 1.633.884 2.584.344.753.806 1.608 1.04 2.531.058.23.181.417.37.586a.56.56 0 0 1 .935.556l-.024.072c-.064.171-.18.364-.37.496a.79.79 0 0 1-.909.002c-.465-.308-.914-.748-1.089-1.437-.2-.793-.584-1.491-.972-2.34-.383-.837-.942-1.864-.984-3.008-.052-1.386-.05-2.837.36-4.287.114-.404.165-.832.227-1.319.06-.468.131-.99.302-1.493.256-.755.38-1.235.164-1.768a.56.56 0 0 1 .308-.73M14.22 20.44a.56.56 0 1 1-.945-.603zm13.048-9.323c1.331-.286 2.668-.133 3.921.02 2.165.266 4.184.882 6.135 1.768a.56.56 0 0 1-.463 1.02c-1.862-.845-3.771-1.426-5.808-1.675-1.274-.156-2.43-.278-3.55-.037-1.366.293-2.63.547-3.78 1.2-.921.524-1.915 1.01-3.003 1.312-.218.06-.482.275-.766.577-.926.984-2.11 1.738-3.049 2.484-1.049.833-2.017 1.606-2.685 2.654l-.945-.603c.786-1.233 1.911-2.116 2.933-2.928 1.073-.852 2.075-1.467 2.93-2.375.286-.304.736-.737 1.283-.888l.18-.052c.895-.27 1.74-.684 2.568-1.155 1.328-.755 2.778-1.038 4.1-1.322"/><path d="M31.87 28.35c.505-.32 1.13-.334 1.739-.153.332.099.808.211 1.2.348.422.147.865.355 1.255.714a.32.32 0 0 0 .212.099c.095.007.211-.012.42-.056a.56.56 0 1 1 .233 1.096l-.157.033c-.393.076-.95.127-1.467-.348-.234-.215-.52-.36-.865-.48-.375-.13-.705-.2-1.15-.332-.41-.122-.674-.067-.82.026-.136.085-.283.274-.308.683-.133 2.107-.082 3.892 1.62 5.1.341.242.57.53.735.881.25.53.401.7.54.78.151.088.39.135 1 .127.216-.003.431.021.599.038.182.018.318.03.439.023a.6.6 0 0 0 .247-.058.56.56 0 0 0 .206-.217.56.56 0 1 1 .956.586q-.253.412-.628.616c-.246.134-.498.18-.723.192a4 4 0 0 1-.61-.027c-.164-.017-.295-.03-.418-.032h-.052c-.598.008-1.13-.018-1.578-.279-.43-.25-.697-.664-.942-1.169l-.05-.102a1.06 1.06 0 0 0-.307-.398l-.063-.047c-2.251-1.599-2.22-4.007-2.09-6.084.042-.665.31-1.233.827-1.56M38.124-12.899a.56.56 0 0 1 .601-.484l.029.003.188.028c.934.147 1.8.447 2.622.783.437.179.87.37 1.291.557.425.188.84.37 1.26.535.9.356 1.745.81 2.557 1.255.82.45 1.602.89 2.422 1.248.42.183.678.47.868.707.208.261.298.403.452.526.843.676 1.802 1.154 2.821 1.696 2.449 1.302 4.751 2.814 6.975 4.437.313.228.43.547.495.72.07.187.09.232.109.254l.008.008.02.02a.56.56 0 0 1-.768.815l-.021-.02-.046-.045c-.22-.232-.308-.522-.353-.643-.064-.171-.088-.192-.104-.204-2.195-1.601-4.452-3.082-6.841-4.353-.976-.519-2.05-1.052-2.996-1.81-.282-.227-.494-.535-.627-.701-.151-.19-.272-.307-.441-.38-.876-.383-1.71-.851-2.513-1.292-.812-.447-1.6-.87-2.429-1.196a35 35 0 0 1-1.3-.552c-.428-.188-.844-.374-1.264-.545-.786-.322-1.56-.586-2.371-.713l-.163-.024-.028-.005a.56.56 0 0 1-.453-.625M62.822 53.679a.56.56 0 0 1 .273 1.087c-.804.202-1.581.466-2.343.8-1.9.834-3.851 1.798-5.95 2.384-1.34.374-2.723.806-4.162 1.056-.4.07-.794.188-1.236.318-.43.126-.9.262-1.397.333-.334.047-.65.126-1.031.206a6 6 0 0 1-1.196.15c-.607.004-1.208.108-1.874.213-.65.101-1.355.202-2.086.157-.139-.009-.273.039-.57.142-.239.084-.599.207-1.014.144l-.084-.016-.028-.006a.56.56 0 0 1 .23-1.095l.029.005.044.007c.105.01.228-.018.454-.097.217-.075.593-.229 1.008-.203.596.037 1.192-.044 1.843-.146.633-.099 1.33-.22 2.041-.225.312-.002.626-.054.973-.127.33-.07.72-.164 1.102-.219.408-.058.807-.17 1.24-.298.422-.124.884-.265 1.36-.347 1.367-.238 2.668-.645 4.053-1.032 1.998-.557 3.836-1.468 5.8-2.33.82-.36 1.657-.645 2.521-.861M64.045 48.852a.56.56 0 1 1 .442 1.03c-.698.299-1.314.515-1.919.83-.603.315-1.236.519-1.822.706-.6.192-1.153.368-1.677.629-1.416.705-2.889 1.509-4.444 2.1l-.151.056c-.15.055-.284.072-.378.082-.112.011-.136.011-.178.02a.56.56 0 1 1-.222-1.099q.098-.018.17-.025l.064-.006.052-.005a.4.4 0 0 0 .104-.019c1.536-.567 2.969-1.353 4.483-2.107.615-.306 1.253-.506 1.836-.693.596-.19 1.14-.368 1.645-.632.653-.34 1.385-.606 1.995-.867M.574 53.064c1.205-.218 2.615-.68 4.206-.206.997.298 1.764.733 2.56 1.231.625.39 1.262.761 1.91 1.14.644.377 1.298.762 1.94 1.174.46.294.99.511 1.58.738.557.213 1.177.439 1.757.74l.073-.011c.061-.012.118-.026.206-.046.077-.017.177-.038.28-.05a.56.56 0 1 1 .124 1.114 2 2 0 0 0-.158.03c-.061.013-.156.036-.241.053-.143.027-.462.084-.756-.072-.52-.276-1.08-.48-1.686-.712-.59-.226-1.217-.478-1.783-.84a55 55 0 0 0-1.902-1.15c-.642-.377-1.296-.757-1.937-1.158-.77-.481-1.436-.853-2.287-1.107-1.26-.376-2.29-.018-3.686.235a.56.56 0 0 1-.2-1.103M5.128 29.613a.56.56 0 0 1 .43 1.035 3.34 3.34 0 0 0-1.287.96C2.421 33.792.775 36.125-.87 38.49l-.706 1.016c-.24.346-.545.69-.766.966a.56.56 0 0 1-.875-.7c.277-.346.507-.599.721-.906 1.876-2.699 3.758-5.439 5.913-7.982a4.46 4.46 0 0 1 1.712-1.271M4.461 3.245a.56.56 0 1 1 .643.917C3.411 5.35 1.561 6.292-.18 7.263c-.216.121-.411.28-.627.47-.203.18-.449.413-.71.61-1.219.921-2.41 1.723-3.508 2.691a.56.56 0 0 1-.741-.84c1.14-1.005 2.418-1.872 3.574-2.745.214-.162.399-.34.642-.555.231-.204.5-.428.824-.609 1.792-1 3.557-1.897 5.187-3.04M11.07-5.856a.56.56 0 1 1 .498 1.004C9.505-3.83 7.391-2.635 5.032-1.986c-.29.08-.582.23-.908.426-.303.18-.681.43-1.04.621C1.036.151-1.01 1.231-3.055 2.324l-.016.017-.06.068a2 2 0 0 1-.094.103.56.56 0 1 1-.793-.792c.038-.038.032-.038.115-.13.056-.062.156-.167.3-.244l1.54-.82c1.54-.819 3.084-1.636 4.62-2.454.331-.176.618-.37.991-.594.35-.21.746-.422 1.187-.544 2.223-.612 4.197-1.73 6.336-2.79M19.384-6.854a.95.95 0 0 1 .744.17c.244.184.365.463.424.75a.56.56 0 0 1-1.09.255l-.007-.028v-.002l-.06.028c-.046.022-.081.04-.133.067-.03.015-.074.038-.122.058l-.05.02c-1.786.656-3.56 1.273-5.304 1.964-1.763.699-3.518 1.384-5.212 2.186-.684.323-1.358.667-2.044 1.015A60 60 0 0 1 4.45.648c-.28.129-.46.194-.672.304a1.4 1.4 0 0 0-.434.32c-.443.513-.983.798-1.494 1.005-.252.102-.512.19-.746.272a9 9 0 0 0-.67.257 22.6 22.6 0 0 0-3.462 1.92c-.275.185-.608.244-.754.28-.19.046-.24.077-.271.11a.56.56 0 1 1-.815-.77c.273-.29.613-.379.821-.43.254-.061.327-.076.39-.119A23.7 23.7 0 0 1-.024 1.783c.255-.114.515-.207.758-.292.249-.087.475-.164.696-.253.435-.176.789-.378 1.066-.699.234-.271.51-.449.767-.582.234-.121.532-.241.72-.327a59 59 0 0 0 2.042-1c.68-.346 1.37-.698 2.07-1.03 1.735-.82 3.527-1.52 5.28-2.213 1.76-.698 3.568-1.327 5.33-1.975l.05-.025c.034-.017.093-.048.149-.075.111-.055.286-.134.481-.166M3.688 46.772a.56.56 0 0 1 1.07.333c-.248.793-.486 1.477-.564 2.223-.073.698-.484 1.504-1.449 1.7l-.051.016a.7.7 0 0 0-.128.063c-1.601 1.579-3.675 2.337-5.49 3.159a.56.56 0 0 1-.462-1.02c1.933-.877 3.759-1.542 5.179-2.95a1.66 1.66 0 0 1 .729-.365c.326-.067.516-.324.557-.718.093-.886.379-1.703.609-2.441M60.916 59.853a.56.56 0 0 1 .35 1.064l-.394.128c-1.977.629-4.014 1.113-6.082 1.322-.367.037-.708.137-1.084.257-.361.116-.778.259-1.22.328-.506.08-1.004.212-1.544.346-.494.123-1.02.245-1.56.3l-.108.01c-.622.05-1.224.174-1.89.292-.652.115-1.349.221-2.085.21-1.011-.018-2.009-.043-2.94.18-.542.13-1.069.107-1.528.072-.483-.037-.871-.082-1.264-.05-.585.049-1.317.167-2.044.1a.56.56 0 0 1-1.075-.095l-.004-.028-.007-.057a1 1 0 0 1 .05-.435.77.77 0 0 1 .356-.416.9.9 0 0 1 .398-.108c.109-.006.212.003.293.013.615.076 1.19-.028 1.94-.09.508-.042 1.022.017 1.442.049.445.033.822.043 1.181-.044 1.097-.263 2.248-.228 3.22-.212.623.01 1.23-.08 1.871-.193.587-.104 1.22-.232 1.865-.294l.13-.012c.479-.039.964-.15 1.49-.28.511-.127 1.071-.276 1.64-.365.335-.052.655-.16 1.051-.288.382-.122.82-.255 1.314-.305 2.102-.212 4.19-.725 6.238-1.399M18.229 32.53a.56.56 0 0 1 .935.617c-.373.564-.493 1.175-.524 1.865-.016.35-.009.704-.003 1.085.004.375.007.772-.024 1.17-.053.689.05 1.356.205 2.06.148.681.359 1.449.462 2.21.017.13.091.281.25.475.126.152.265.287.425.444l.167.167.02.02a.56.56 0 0 1-.817.768c-.178-.18-.449-.432-.66-.687-.217-.265-.438-.609-.496-1.036-.095-.703-.28-1.359-.446-2.12-.161-.739-.293-1.534-.227-2.387.026-.343.025-.695.02-1.069-.005-.366-.013-.76.004-1.15.036-.79.18-1.63.709-2.433M31.811 45.513a.56.56 0 0 1 1.038.424c-.127.31-.09.45-.05.531.06.12.21.272.553.477 1.571.94 3.293 1.42 5.09 1.548 1.8.13 3.489.321 5.174-.021.049-.01.094-.035.243-.135.107-.07.37-.259.713-.253h-.005c-.001 0 .02-.003.098-.02.068-.016.208-.051.352-.056a.88.88 0 0 1 .582.178c.175.136.274.32.329.507l.02.08.007.028a.56.56 0 0 1-1.049.356l-.139.03q-.074.014-.18.017a1 1 0 0 0-.108.067c-.108.072-.338.238-.64.299-1.873.38-3.752.165-5.477.041-1.947-.14-3.843-.661-5.585-1.704-.385-.23-.77-.52-.98-.937-.227-.454-.194-.947.014-1.457"/><path d="M61.53 57.906a.56.56 0 0 1 .428 1.036c-.444.183-.935.255-1.293.328-.388.08-.687.167-.94.346a.7.7 0 0 1-.447.12 1.2 1.2 0 0 1-.226-.038l-.13-.034-.017-.004c-1.287-.038-2.451.054-3.541.634-.409.217-.852.267-1.206.297-.389.032-.676.043-.953.121-.91.256-1.843.395-2.725.54-.895.148-1.748.302-2.566.582-.856.293-1.81.366-2.609.359-.914-.008-1.818.102-2.777.204-.946.101-1.938.192-2.96.12-.274-.019-.555-.051-.82-.08-.27-.03-.53-.056-.787-.068-.513-.024-.982.01-1.418.175a.56.56 0 0 1-.396-1.049c.638-.24 1.28-.273 1.867-.245.294.014.584.044.855.073.277.03.53.06.778.077l.171.01c.855.044 1.706-.033 2.591-.127.93-.1 1.912-.22 2.906-.21.74.006 1.55-.064 2.236-.299.916-.314 1.852-.48 2.747-.627.909-.15 1.768-.279 2.603-.514.41-.115.849-.132 1.163-.159.348-.03.585-.07.773-.17 1.358-.722 2.77-.805 4.123-.763a1 1 0 0 1 .233.036l.054.014c.405-.24.83-.345 1.195-.419.448-.091.775-.136 1.089-.266M-.503 17.823a.56.56 0 0 1 .674.896c-.693.52-1.32 1.123-1.952 1.76-.622.629-1.261 1.306-1.939 1.928-1.22 1.121-2.341 2.324-3.52 3.534-.133.137-.28.242-.402.323-.142.095-.22.14-.323.213a.56.56 0 0 1-.651-.911c.115-.082.27-.18.352-.234.101-.068.17-.121.221-.173l.434-.447c1.013-1.049 2.037-2.125 3.131-3.13.651-.598 1.253-1.236 1.901-1.891.64-.646 1.314-1.296 2.074-1.868M56.997 37.535a.56.56 0 0 1 .705.36c.664 2.052 1.742 3.855 2.698 5.905.283.606.833.91 1.616.898a.56.56 0 0 1 .017 1.12c-1.122.017-2.139-.452-2.648-1.544-.893-1.913-2.058-3.898-2.75-6.034a.56.56 0 0 1 .362-.706M59.178 16.032c.111.011.274.049.423.175.13.11.203.248.244.38l.016.056c.028.114.093.22.226.365.07.078.139.145.232.24.085.089.184.193.276.313.665.863 1.488 1.578 2.361 2.338.86.748 1.768 1.54 2.505 2.516a.14.14 0 0 0 .07.055.4.4 0 0 0 .16.007l.03-.003a.56.56 0 0 1 .107 1.116l-.083.008c-.416.03-.863-.09-1.178-.508-.655-.869-1.474-1.587-2.346-2.345-.858-.746-1.77-1.533-2.514-2.501a3 3 0 0 0-.191-.214c-.072-.073-.17-.172-.258-.268a2.1 2.1 0 0 1-.406-.61l-.042-.002-.044-.006-.029-.005a.56.56 0 0 1 .178-1.105l.034-.002c.03-.002.129-.01.229 0M20.482-2.453a.56.56 0 0 1 .164 1.108c-1.366.202-2.682.605-4.008 1.072-1.307.46-2.669 1-4.03 1.43a.56.56 0 0 1-.337-1.07c1.344-.423 2.625-.934 3.994-1.416 1.35-.476 2.745-.907 4.217-1.124M28.559 51.515c.299-.019.558.2.592.495l.003.028.005.066c.028.324.108.539.224.696.122.167.326.325.697.458.607.217 1.179.51 1.714.784.547.28 1.056.541 1.584.735.148.055.308.145.403.196.118.063.2.101.267.121a.3.3 0 0 0 .069.012l.004-.002.015-.01a.4.4 0 0 0 .078-.084.56.56 0 0 1 .9.666c-.178.241-.4.42-.67.502a1.23 1.23 0 0 1-.71-.009 2.6 2.6 0 0 1-.48-.207c-.142-.076-.207-.112-.262-.133-.604-.221-1.175-.516-1.709-.79-.545-.279-1.053-.538-1.58-.726-.517-.185-.933-.454-1.223-.85-.272-.369-.396-.799-.437-1.26l-.008-.092v-.03a.56.56 0 0 1 .523-.566M12.547 19.429a.56.56 0 0 1 .72.86c-1.965 1.644-3.722 3.454-5.115 5.577-.243.37-.557.677-1.01.861a.56.56 0 1 1-.423-1.038c.196-.079.347-.21.496-.438 1.47-2.24 3.31-4.13 5.332-5.822M31.036 38.199a.56.56 0 0 1 .77.047l.02.022.145.17c.728.847 1.497 1.56 2.466 2.04.52.258.89.385 1.394.34.126-.012.255-.035.431-.063.163-.026.359-.053.562-.057.427-.006.913.097 1.328.532a.56.56 0 0 1-.791.793l-.02-.02-.026-.026c-.13-.122-.27-.161-.473-.158-.12.002-.25.019-.406.043-.144.023-.33.055-.503.071-.809.074-1.403-.158-1.993-.45-1.158-.574-2.042-1.41-2.82-2.314l-.153-.181-.018-.023a.56.56 0 0 1 .087-.767M41.927 31.718a.56.56 0 0 1 .58.51v.03l.007.175c.023.882-.024 1.766-.19 2.657-.09.484-.256.938-.557 1.315q-.46.575-1.243.807c-.323.097-.598.181-.86.31-.459.226-.95.168-1.342 0a2.2 2.2 0 0 1-.972-.818.7.7 0 0 1-.064-.127c-.579-.004-1.147-.14-1.59-.214-.566-.095-1.021-.118-1.465.072a.56.56 0 0 1-.44-1.03c.753-.322 1.479-.25 2.091-.147.655.11 1.13.235 1.628.191a.8.8 0 0 1 .56.139c.21.155.262.37.277.484q.008.064.008.11c.108.133.254.245.406.31.184.078.322.067.408.025.359-.177.72-.285 1.034-.378.333-.1.543-.25.688-.433.15-.189.263-.451.331-.82.148-.799.194-1.601.171-2.422l-.005-.165v-.029a.56.56 0 0 1 .539-.552M2.36 54.977a.56.56 0 0 1 .781.138.81.81 0 0 1 .066.84c-.106.205-.39.478-.789.385-.439-.103-.892-.087-1.422-.05-.476.032-1.031.083-1.596.02l-.113-.013c-.658-.09-1.34.155-2.126.494a.56.56 0 1 1-.444-1.029c.765-.33 1.716-.714 2.723-.575.463.063.927.022 1.48-.016.39-.026.822-.05 1.27-.002a.56.56 0 0 1 .17-.192M33.626 1.368c1.915.016 3.652.792 5.237 1.34a.56.56 0 0 1-.339 1.067l-.027-.009-.33-.115c-1.636-.581-3.083-1.19-4.706-1.161a.56.56 0 1 1-.02-1.12zM16.673 25.202a.56.56 0 0 1 .872.705c-1.144 1.415-2.06 2.975-2.831 4.641a.95.95 0 0 1-.364.39c-.043.028-.095.059-.12.073l-.053.035a.56.56 0 0 1-.672-.897c.055-.042.11-.076.15-.099l.077-.047c.793-1.703 1.745-3.322 2.941-4.8M30.462 26.598c.772-.64 1.548-.744 2.28-.61.347.065.678.182.979.301.15.06.3.124.442.183q.214.091.415.17c.176.068.336.152.474.229.15.083.255.146.38.21.23.12.412.18.616.175h.041c.422.002.721.25.895.466.18.224.29.488.34.695.194.785.326 1.634.302 2.476a1.28 1.28 0 0 1-.906 1.225c-.484.157-1.046.07-1.554-.18a20 20 0 0 1-1.617-.866h-.039q-.026 0-.068.002l-.101.004c-.067.001-.155 0-.254-.02l-.043-.008-.028-.008a.56.56 0 0 1 .28-1.084c-.008-.002-.005 0 .027 0l.061-.003.095-.004c.143-.004.363.003.597.131l.047.028.184.11c.43.253.884.481 1.353.712.33.163.585.162.713.12a.2.2 0 0 0 .098-.06c.012-.015.033-.051.035-.131l.003-.134c.003-.667-.105-1.363-.272-2.043l-.009-.03a.8.8 0 0 0-.119-.231.3.3 0 0 0-.047-.047c-.47.01-.846-.144-1.145-.3-.142-.073-.296-.163-.409-.226a3 3 0 0 0-.335-.163 17 17 0 0 1-.445-.182q-.216-.092-.422-.174a4 4 0 0 0-.768-.24c-.447-.083-.876-.033-1.36.37-.38.314-.816.318-1.156.241a3 3 0 0 1-.668-.253l-.177-.09-.025-.014a.56.56 0 0 1 .515-.993l.026.013.165.083c.157.078.29.134.41.161.142.032.176.004.194-.011M50.978 34.159a.56.56 0 0 1 .661.398l.007.028.13.59c.3 1.39.575 2.881.447 4.335-.02.233-.024.48-.03.765a9 9 0 0 1-.05.888c-.072.616-.26 1.284-.798 1.859a.4.4 0 0 0-.018.057 1.4 1.4 0 0 0-.029.188l-.007.076c-.037.453-.198.82-.455 1.121-.247.288-.562.489-.868.65-.125.067-.26.129-.367.179a3 3 0 0 0-.294.153c-.161.098-.255.193-.31.319a.56.56 0 0 1-1.025-.454c.18-.406.475-.653.754-.822a4 4 0 0 1 .394-.208c.128-.06.227-.106.325-.157.258-.136.428-.259.54-.39a.8.8 0 0 0 .19-.483c.009-.115.024-.276.064-.437.037-.151.11-.37.278-.547.321-.338.456-.745.513-1.234.03-.248.037-.506.043-.781.005-.267.009-.56.033-.84l.011-.138c.085-1.235-.15-2.526-.435-3.855l-.13-.592-.005-.029a.56.56 0 0 1 .431-.64M22.11 5.028a.56.56 0 0 1 .27 1.087c-1.4.347-2.761.845-4.11 1.404-.217.089-.414.125-.58.145-.194.025-.26.024-.392.047a.56.56 0 0 1-.191-1.104c.151-.026.359-.044.444-.054.114-.015.202-.034.29-.07 1.375-.57 2.794-1.09 4.269-1.455M62.81 55.55a.56.56 0 1 1 .296 1.08c-.785.215-1.524.527-2.349.834-.804.3-1.665.583-2.598.677a.56.56 0 1 1-.113-1.114c.785-.08 1.536-.32 2.32-.613.766-.285 1.595-.632 2.445-.864"/><path d="M32.727 23.994a.56.56 0 0 1 .669-.384l.028.007.119.038c1.218.408 2.028 1.372 2.724 2.074.639.644.722 1.486.413 2.272a.56.56 0 0 1-1.043-.41c.176-.447.107-.797-.166-1.073-.796-.803-1.389-1.501-2.28-1.8l-.088-.027-.027-.01a.56.56 0 0 1-.35-.687M32.842 13.092c.17 0 .316.045.419.085.104.042.2.092.263.126.436.234.914.357 1.452.457.465.087 1.019.164 1.546.296a.56.56 0 0 1 1.026.182l.005.029.008.054c.015.132.02.29-.026.443a.683.683 0 0 1-.48.478.9.9 0 0 1-.429 0c-.085-.018-.19-.05-.245-.065-.513-.141-1.015-.204-1.611-.315-.57-.107-1.186-.255-1.776-.571l-.01-.006a.56.56 0 0 1-1.005-.467 1.1 1.1 0 0 1 .306-.513.84.84 0 0 1 .557-.213M37.408 59.332c.556-.056 1.108.075 1.51.147.438.078.765.106 1.079.001a.56.56 0 0 1 .354 1.064c-.6.2-1.172.12-1.63.038-.466-.083-.8-.16-1.135-.14l-.068.005c-.03.003-.065.008-.12.017-.051.008-.119.02-.19.027-.13.015-.313.026-.51-.023l-.04-.01-.027-.01a.56.56 0 0 1 .307-1.075l.028.007.009.001a.5.5 0 0 0 .106-.003l.139-.02c.05-.009.119-.02.188-.026M38.478 29.66a1 1 0 0 1 .361.055.75.75 0 0 1 .419.39c.076.162.094.336.095.49.006 1.282-.338 2.408-1.015 3.49-.25.397-.603.792-1.06.928a1.1 1.1 0 0 1-.774-.051 1.4 1.4 0 0 1-.588-.539c-.112-.174-.219-.248-.306-.287a.9.9 0 0 0-.372-.057c-1.086.025-1.682-.733-2.082-1.12a1.4 1.4 0 0 0-.186-.14c-.082-.055-.211-.14-.326-.241a1.24 1.24 0 0 1-.338-.463 1.2 1.2 0 0 1-.06-.684.56.56 0 1 1 1.102.2.2.2 0 0 0-.004.062c.003.005.013.02.042.045.048.043.108.083.212.153.09.06.22.15.338.263.549.532.768.817 1.276.805.252-.006.55.02.85.152.308.136.576.366.795.703l.025.036a.5.5 0 0 0 .08.087.5.5 0 0 0 .158-.108c.082-.077.174-.19.268-.34.54-.861.816-1.728.842-2.71a.56.56 0 0 1 .097-1.115c.046.002.045-.002.15-.004M36.577 57.122a.56.56 0 0 1 .79-.053c.205.178.44.25.762.275.167.014.338.015.54.017.194.002.415.006.637.031.138.016.286.017.468.016.171-.002.38-.005.588.012.424.034.902.16 1.31.587l.039.042.019.022a.56.56 0 0 1-.832.75l-.02-.022-.03-.032c-.152-.152-.325-.21-.577-.23-.146-.012-.297-.01-.488-.008-.179 0-.392.002-.607-.024a5 5 0 0 0-.518-.024c-.186-.002-.404-.002-.62-.02-.432-.035-.921-.143-1.365-.512l-.043-.037-.021-.02a.56.56 0 0 1-.032-.77M30.893-.885a.56.56 0 0 1 .628-.448l.029.004 4.809.934.028.006a.56.56 0 0 1-.214 1.1l-.028-.006-4.81-.933-.027-.007a.56.56 0 0 1-.415-.65M60.205 44.562a.56.56 0 1 1 .465 1.019c-.196.089-.388.194-.599.31-.204.114-.43.24-.664.352-.479.227-1.033.412-1.709.378-.027-.002-.134.02-.384.203-.113.081-.225.173-.356.277-.125.1-.266.21-.41.307-.305.203-.67.418-1.082.51-.41.093-.843.058-1.283-.163l-.089-.047-.025-.015a.56.56 0 0 1 .572-.963.77.77 0 0 0 .58.095c.202-.045.425-.163.705-.35.1-.066.207-.15.333-.25.119-.095.258-.207.396-.308.252-.183.645-.438 1.1-.415.424.02.788-.09 1.172-.272.196-.093.388-.2.602-.319a10 10 0 0 1 .675-.35"/><path d="M57.645 42.472a.56.56 0 0 1 .668.386l.008.028.014.062c.136.636.01 1.224-.108 1.704-.122.499-.228.87-.221 1.245l.002.075.001.029a.56.56 0 0 1-1.117.066l-.002-.03-.005-.114c-.01-.572.15-1.117.254-1.538.12-.486.182-.863.092-1.238a.56.56 0 0 1 .414-.675M47.63 47.163a.56.56 0 1 1 .402 1.046q-1.214.466-2.428.933a.56.56 0 0 1-.402-1.045zM33.175 22.027a.56.56 0 0 1 1.111.146c-.079.602-.102 1.57-.812 2.283a.56.56 0 0 1-.794-.791c.376-.377.391-.85.495-1.638"/></g><path fill="#0F870D" d="M28.141 16.97c.249-3.562 1.314-5.386 2.636-6.276 2.288-1.54 6.076-.182 6.246 2.57.164 2.64-1.77 5.761-2.233 6.792-.691 1.543 0 2.074.692 1.862.691-.213 7.607-2.022 8.351 2.393 1.33 7.341-9.043 8.245-10.16 8.405s-1.223 1.596 0 1.915c1.224.32 6.277.851 6.277 4.362-.266 6.224-7.553 5.585-10.532 4.255s-4.009-.58-4.628 0c-.473.444-1.904 3.455-3.045 5.383-.533.902-2.052 1.811-2.108.766-.029-.523.24-.947.492-1.405.893-1.627 2.099-4.3 1.842-5.807-.373-2.181-3.564-3.777-5.16-5.799-2.178-3.264.826-5.298 2.606-4.734 1.706.54 3.83.479 2.554-1.596-2.766-4.362-3.245-10.16-.852-11.543s4.155 1.334 4.735 2.234c.558.867 1.957 1.72 2.287-3.776M87.84 45.4q-2.92 0-5.48-1.08a14.3 14.3 0 0 1-4.44-3.08 14.6 14.6 0 0 1-2.96-4.56q-1.08-2.6-1.08-5.6t1.08-5.56a14.3 14.3 0 0 1 3-4.56 13.6 13.6 0 0 1 4.48-3.04q2.6-1.08 5.64-1.08 3.32 0 6.12 1.28a12.4 12.4 0 0 1 4.68 3.68l-2.6 2.6a8.45 8.45 0 0 0-3.48-2.92q-2.16-1.04-4.72-1.04-3.04 0-5.4 1.36-2.32 1.36-3.64 3.76-1.28 2.4-1.28 5.52 0 3.16 1.32 5.56t3.56 3.76 5.12 1.36q2.92 0 5.04-1.12a7.73 7.73 0 0 0 3.32-3.28q1.16-2.2 1.16-5.36l2.28 1.64h-12V30.2h13.6v.56q0 4.84-1.72 8.12-1.68 3.24-4.72 4.88-3 1.64-6.88 1.64m17.737-.4V26h3.601v19zm3.601-10.84-1.36-.6q0-3.64 1.68-5.8t4.84-2.16q1.44 0 2.6.52 1.16.48 2.16 1.64l-2.36 2.44q-.6-.64-1.32-.92t-1.68-.28q-2 0-3.28 1.28t-1.28 3.88m20.629 11.24q-2.84 0-5.12-1.28a9.8 9.8 0 0 1-3.6-3.56q-1.32-2.24-1.32-5.08 0-2.8 1.28-5.04a9.7 9.7 0 0 1 3.52-3.52q2.24-1.32 5-1.32 2.64 0 4.64 1.2a8.23 8.23 0 0 1 3.16 3.32q1.16 2.12 1.16 4.8 0 .4-.04.88-.04.44-.16 1.04h-16.04v-3h14.12l-1.32 1.16q0-1.92-.68-3.24-.68-1.36-1.92-2.08-1.239-.76-3-.76-1.839 0-3.24.8a5.47 5.47 0 0 0-2.16 2.24q-.76 1.44-.76 3.4 0 2 .8 3.52a5.8 5.8 0 0 0 2.28 2.32q1.48.8 3.4.8 1.6 0 2.92-.56a6.04 6.04 0 0 0 2.32-1.68l2.32 2.36a8.8 8.8 0 0 1-3.36 2.44q-1.959.84-4.2.84m21.446 0q-2.84 0-5.12-1.28a9.8 9.8 0 0 1-3.6-3.56q-1.32-2.24-1.32-5.08 0-2.8 1.28-5.04a9.7 9.7 0 0 1 3.52-3.52q2.24-1.32 5-1.32 2.64 0 4.64 1.2a8.24 8.24 0 0 1 3.16 3.32q1.16 2.12 1.16 4.8 0 .4-.04.88-.04.44-.16 1.04h-16.04v-3h14.12l-1.32 1.16q0-1.92-.68-3.24-.681-1.36-1.92-2.08-1.24-.76-3-.76-1.84 0-3.24.8a5.46 5.46 0 0 0-2.16 2.24q-.76 1.44-.76 3.4 0 2 .8 3.52a5.8 5.8 0 0 0 2.28 2.32q1.48.8 3.4.8 1.6 0 2.92-.56a6.05 6.05 0 0 0 2.32-1.68l2.32 2.36a8.8 8.8 0 0 1-3.36 2.44q-1.96.84-4.2.84m26.085-.4V33.92q0-2.16-1.36-3.56t-3.52-1.4q-1.44 0-2.56.64a4.64 4.64 0 0 0-1.76 1.76q-.64 1.12-.64 2.56l-1.48-.84q0-2.16.96-3.84t2.68-2.64q1.72-1 3.88-1t3.8 1.08q1.68 1.08 2.64 2.84.96 1.72.96 3.68V45zm-13.44 0V26h3.6v19zm26.794-10.28v-4.88h6.08q1.16 0 2.12-.48a3.66 3.66 0 0 0 1.52-1.4q.56-.92.56-2.24 0-1.28-.56-2.2a3.66 3.66 0 0 0-1.52-1.4 4.7 4.7 0 0 0-2.12-.48h-6.08v-4.88h7q2.68 0 4.84 1.08a8.2 8.2 0 0 1 3.4 3.12q1.28 2 1.28 4.76t-1.28 4.8q-1.24 2-3.4 3.12-2.16 1.08-4.84 1.08zm-4.8 10.28V16.76h6.28V45zm24.557 0V25.56h6.12V45zm6.12-10.68-2.56-2q.76-3.4 2.56-5.28t5-1.88q1.4 0 2.44.44 1.08.4 1.88 1.28l-3.64 4.6q-.4-.44-1-.68t-1.36-.24q-1.52 0-2.44.96-.88.92-.88 2.8m20.003 11.12q-3.16 0-5.639-1.28-2.44-1.32-3.84-3.64t-1.4-5.24 1.36-5.2a10.04 10.04 0 0 1 3.76-3.64q2.36-1.32 5.32-1.32 2.88 0 5.08 1.24a8.9 8.9 0 0 1 3.44 3.44q1.28 2.2 1.279 5.04 0 .52-.079 1.12-.04.56-.2 1.32l-16.76.04v-4.2l14.16-.04-2.64 1.76q-.04-1.68-.52-2.76-.48-1.12-1.44-1.68-.921-.6-2.28-.6-1.44 0-2.52.68-1.04.64-1.64 1.84-.56 1.2-.56 2.92t.6 2.96a4.8 4.8 0 0 0 1.76 1.88q1.16.64 2.72.64 1.44 0 2.6-.48a5.9 5.9 0 0 0 2.04-1.52l3.36 3.36a9.1 9.1 0 0 1-3.48 2.52q-2.04.84-4.481.84m19.395.04q-1.72 0-3.4-.44a13.5 13.5 0 0 1-3.08-1.24q-1.401-.84-2.4-1.92l3.48-3.52q.96 1.04 2.28 1.64 1.32.56 2.88.56 1.08 0 1.64-.32.6-.32.6-.88 0-.72-.72-1.08-.68-.4-1.76-.68-1.08-.32-2.28-.68t-2.28-1a5.05 5.05 0 0 1-1.76-1.76q-.68-1.16-.68-2.92 0-1.88.96-3.24.96-1.4 2.72-2.2t4.12-.8q2.48 0 4.56.88 2.12.84 3.44 2.52l-3.48 3.52q-.92-1.08-2.08-1.52a6 6 0 0 0-2.2-.44q-1.041 0-1.56.32-.52.28-.52.84 0 .6.68.96t1.76.64 2.28.68 2.28 1.08a5.3 5.3 0 0 1 1.76 1.84q.68 1.12.68 2.96 0 2.84-2.16 4.52-2.121 1.68-5.76 1.68m18.32 0q-1.72 0-3.4-.44a13.6 13.6 0 0 1-3.08-1.24q-1.4-.84-2.4-1.92l3.48-3.52q.96 1.04 2.28 1.64 1.32.56 2.88.56 1.08 0 1.64-.32.6-.32.6-.88 0-.72-.72-1.08-.68-.4-1.76-.68-1.08-.32-2.28-.68t-2.28-1a5.05 5.05 0 0 1-1.76-1.76q-.68-1.16-.68-2.92 0-1.88.96-3.24.96-1.4 2.72-2.2t4.12-.8q2.48 0 4.56.88 2.12.84 3.44 2.52l-3.48 3.52q-.92-1.08-2.08-1.52a6 6 0 0 0-2.2-.44q-1.04 0-1.56.32-.52.28-.52.84 0 .6.68.96t1.76.64 2.28.68 2.28 1.08a5.3 5.3 0 0 1 1.76 1.84q.68 1.12.68 2.96 0 2.84-2.16 4.52-2.12 1.68-5.76 1.68m18.84-.48-9.08-28.24h6.24l6.64 21.72h-2.44l6.48-21.72h4.92l6.48 21.72h-2.4l6.6-21.72h6.2L313.687 45h-4.92l-6.52-21.72h2.32L298.047 45zm37.838-10.28v-4.88h6.08q1.16 0 2.12-.48a3.66 3.66 0 0 0 1.52-1.4q.56-.92.56-2.24 0-1.28-.56-2.2a3.66 3.66 0 0 0-1.52-1.4 4.7 4.7 0 0 0-2.12-.48h-6.08v-4.88h7q2.68 0 4.84 1.08a8.17 8.17 0 0 1 3.4 3.12q1.28 2 1.28 4.76t-1.28 4.8q-1.24 2-3.4 3.12-2.16 1.08-4.84 1.08zm-4.8 10.28V16.76h6.28V45z"/></svg>