<svg xmlns="http://www.w3.org/2000/svg" viewBox="141.312 153.6 1019.904 684.032" width="1019.904" height="684.032" xmlns:v="https://vecta.io/nano"><path paint-order="stroke" d="M0 0h1280v1024H0z" fill="#fff" fill-opacity="0"/><g paint-order="stroke" fill="#277a4b"><path d="M485.594 267.978l-14.18 3.26v14.526c0 52.956 3.164 96.479 10.967 133.585h0c1.039 4.885 2.129 9.679 3.363 14.322h0c3.455 13.633 7.656 26.332 12.648 38.291h0c1.676 4.045 3.455 7.994 5.329 11.905h0c.153.348.298.691.449.983h0c12.251-2.762 24.503-5.035 36.904-6.861h0c-3.556-6.623-6.769-13.588-9.733-20.945h0c-1.681-4.207-3.26-8.548-4.743-13h0c-4.348-13.085-7.902-27.362-10.669-43.22h0c-.94-5.338-1.831-10.824-2.571-16.507h0c-3.063-22.376-4.793-47.672-5.336-76.521h0l-.099-6.617 6.57-.747c14.972-1.678 34.483-3.208 54.098-4.393h0c5.878-12.255 11.214-24.75 15.957-37.447h0c-37.645 1.972-80.827 5.239-98.954 9.388m255.555 219.587a156.34 156.34 0 0 1-7.113 10.967h0c-7.954 11.27-16.996 21.636-27.221 31.477h0c-3.653 3.559-7.507 7.061-11.512 10.465h0c-13.832 12.008-29.588 23.516-47.373 35.374h0l-4.052 2.719-4.052-2.719c-20.647-13.783-38.583-27.075-53.997-41.248h0c-15.017 1.034-29.935 2.766-44.755 5.286h0c23.366 26.435 53.799 50.539 92.925 75.734h0l9.879 6.318 9.834-6.318c34.133-21.934 61.652-43.081 83.634-65.709h0c3.258-3.359 6.424-6.767 9.489-10.227h0c8.793-9.978 16.594-20.249 23.465-31.075h0a210.01 210.01 0 0 0 6.469-10.866h0c.15-.195.303-.388.402-.639h0c-8.849-9.583-17.299-19.469-25.295-29.594h0c-3.211 7.018-6.767 13.687-10.725 20.056"/><path d="M637.01 293.123l6.868-.099h0c4.595 0 10.624.099 17.635.294h0l13.045.444h0l39.076 1.93h0l13.431.839h0c16.9 1.142 33.258 2.47 46.151 3.9h0l6.572.747-.099 6.617c-.595 32.11-2.67 59.824-6.374 84.029h0a446.93 446.93 0 0 0 29 40.562h0c10.027-39.866 13.976-87.293 13.976-146.621h0v-14.526l-14.126-3.26c-16.206-3.709-52.119-6.671-86.403-8.649h0l-12.948-.738h0l-37.939-1.582h0l-12.693-.287h0c-.745 0-1.44-.063-2.129-.063h0c-3.902 12.361-8.248 24.555-13.043 36.465m111.705 149.83c2.764 3.911 5.679 7.759 8.645 11.569h0c8.151 10.615 16.787 20.994 25.883 30.972h0c2.863 3.161 5.78 6.271 8.741 9.334h0c3.211 3.408 6.469 6.767 9.834 10.079h0l-7.66 11.952c-4.054-1.528-8.053-2.959-12.15-4.346h0c-6.619 10.776-14.129 21.095-22.527 31.033h0c20.207 6.417 39.963 14.176 59.079 23.263h0c14.678-19.614 26.536-40.261 36.213-62.736h0c-16.942-14.328-32.754-29.846-47.329-46.344h0c-3.157-3.507-6.22-7.068-9.186-10.671h0a456.42 456.42 0 0 1-28.111-37.349h0c-3.357-4.938-6.567-9.877-9.632-14.916h0c-17.041-27.277-31.268-56.27-42.388-86.454h0l-39.622-2.08h0c16.258 49.011 39.873 95.003 70.208 136.695m-323.488 41.149c8.4 23.718 18.82 45.163 31.764 65.265h0a466.8 466.8 0 0 1 61.706-17.779h0a376.57 376.57 0 0 1 13.236-2.623h0a427.96 427.96 0 0 1 42.191-5.778h0c5.434-.552 10.873-.94 16.352-1.241h0a472.08 472.08 0 0 1 26.332-.734h0c24.95 0 49.945 2.024 74.7 6.123h0c11.257-10.076 21.048-20.501 29.491-31.762h0c-34.142-7.216-68.962-10.826-104.139-10.826h0c-18.578 0-37.151 1.037-55.576 3.114h0c-4.548.496-9.042 1.041-13.489 1.683h0c-12.648 1.728-25.244 3.947-37.694 6.664h0l-12.154 2.825h0c-4.494 1.034-8.991 2.217-13.433 3.401h0l-6.572-12.643 11.014-9.336h0c-5.136-11.766-9.482-24.12-13.139-37.306h0c-15.811 14.773-32.706 28.461-50.589 40.952m192.668-299.767c-3.803 20.804-9.042 41.197-15.612 61.116h0c-1.335 4.193-2.769 8.398-4.301 12.497h0c-4.543 12.648-9.63 25.094-15.264 37.248h0a294.98 294.98 0 0 1-6.076 12.693h0c-14.025 28.358-30.974 55.24-50.488 80.235h0c2.468 16.848 5.733 31.914 9.881 45.588h0a499.99 499.99 0 0 0 82.057-127.741h0c1.878-4.151 3.709-8.299 5.434-12.556h0c4.988-12.002 9.486-24.254 13.534-36.696h0l3.855-12.41h0c1.532-5.138 2.964-10.278 4.351-15.461h0l14.225.639c.844 5.089 1.781 10.133 2.771 15.123h0l37.643 1.481h0c-4.449-20.007-7.507-40.364-9.237-60.964h0l-46.788-1.387h0c-4.001 0-12.944.15-25.984.595"/></g><path d="M206.703 732.158h13.948c-3.804 4.611-9.567 7.493-16.022 7.493-11.757 0-21.094-9.452-21.094-21.325s9.452-21.325 21.094-21.325c7.377 0 14.178 3.919 17.982 10.028l16.253-9.452c-7.262-11.642-19.942-19.135-34.235-19.135-14.754 0-27.78 7.723-34.811 19.942-3.573 6.109-5.302 12.795-5.302 19.942 0 14.293 7.608 27.204 19.942 34.466 6.109 3.573 12.91 5.418 20.172 5.418 7.954 0 15.446-2.305 21.671-6.225v4.957h18.443v-40.921h-38.039zm115.154 24.783l-17.406-27.895c9.222-3.804 15.677-12.91 15.677-23.745 0-13.948-10.835-25.013-24.668-25.59h-38.039v77.23h18.443v-25.936h7.377l16.253 25.936zm-29.624-42.073h-16.368v-19.019h16.368c5.648 0 9.452 3.919 9.452 9.567s-3.804 9.452-9.452 9.452zm42.304 42.073h55.329v-16.138H352.98v-14.409h29.97v-16.138h-29.97v-14.409h36.886v-16.138h-55.329zm68.009 0h55.329v-16.138h-36.886v-14.409h29.97v-16.138h-29.97v-14.409h36.886v-16.138h-55.329zm86.452 0V709.22l28.126 47.721h22.593v-77.23h-18.443v47.952l-28.241-47.952h-22.478v77.23zm81.841 0v-25.936h19.596c13.832-.576 24.668-11.642 24.668-25.705 0-13.948-10.835-25.013-24.668-25.59h-38.039v77.23zm16.368-42.073h-16.368v-19.019h16.368c5.648 0 9.452 3.919 9.452 9.567s-3.804 9.452-9.452 9.452zm105.01 42.073l-17.406-27.895c9.222-3.804 15.677-12.91 15.677-23.745 0-13.948-10.835-25.013-24.668-25.59h-38.039v77.23h18.443v-25.936h7.377l16.253 25.936zm-29.624-42.073h-16.368v-19.019h16.368c5.648 0 9.452 3.919 9.452 9.567s-3.804 9.452-9.452 9.452zm42.304 42.073h55.329v-16.138H723.34v-14.409h29.97v-16.138h-29.97v-14.409h36.886v-16.138h-55.329zm99.938-78.383c-17.867 0-30.085 9.337-30.085 23.976 0 11.642 6.801 19.019 20.403 22.016l15.907 3.458c5.072 1.037 7.608 2.882 7.608 5.533 0 4.034-3.919 6.109-11.757 6.109-6.34 0-12.795-3.689-14.985-9.567l-19.019 6.686c3.228 13.832 16.368 21.325 32.967 21.325 10.72 0 20.864-3.458 26.858-10.951 2.997-3.689 4.496-8.299 4.496-13.717 0-11.642-6.916-19.019-20.864-22.132l-15.792-3.573c-4.034-.922-6.801-2.766-6.801-5.187 0-4.034 4.726-5.533 10.835-5.533 7.493 0 12.334 1.844 13.371 8.184l17.751-6.916c-3.804-12.91-15.677-19.711-30.892-19.711zm77 0c-17.867 0-30.085 9.337-30.085 23.976 0 11.642 6.801 19.019 20.403 22.016l15.907 3.458c5.072 1.037 7.608 2.882 7.608 5.533 0 4.034-3.919 6.109-11.757 6.109-6.34 0-12.795-3.689-14.985-9.567l-19.019 6.686c3.228 13.832 16.368 21.325 32.967 21.325 10.72 0 20.864-3.458 26.858-10.951 2.997-3.689 4.496-8.299 4.496-13.717 0-11.642-6.916-19.019-20.864-22.132l-15.792-3.573c-4.034-.922-6.801-2.766-6.801-5.187 0-4.034 4.726-5.533 10.835-5.533 7.493 0 12.334 1.844 13.371 8.184l17.751-6.916c-3.804-12.91-15.677-19.711-30.892-19.711zm88.757 78.383l-.115-.231 12.91-44.955 12.91 44.955-.115.231h19.365l24.437-77.23h-19.365l-14.293 45.186-12.91-45.186h-19.942l-12.91 45.186-14.293-45.186h-19.365l24.322 77.23zm100.515 0v-25.936h19.596c13.832-.576 24.668-11.642 24.668-25.705 0-13.948-10.835-25.013-24.668-25.59h-38.039v77.23zm16.368-42.073h-16.368v-19.019h16.368c5.648 0 9.452 3.919 9.452 9.567s-3.804 9.452-9.452 9.452z" paint-order="stroke" fill="#277a4b"/></svg>